<svg width="119" height="80" viewBox="0 0 119 80" fill="none" xmlns="http://www.w3.org/2000/svg">
<g clip-path="url(#clip0_2042_5248)">
<path d="M82.2635 0.570984H62.3701V4.58497H82.2635V0.570984Z" fill="white"/>
<path d="M82.2636 5.15595H62.3702C62.0554 5.15595 61.7979 4.89901 61.7979 4.58497V0.57098C61.7979 0.256941 62.0554 0 62.3702 0H82.2636C82.5784 0 82.8359 0.256941 82.8359 0.57098V4.58497C82.8359 4.89901 82.5784 5.15595 82.2636 5.15595ZM62.9425 4.01399H81.6913V1.14196H62.9425V4.01399Z" fill="#332828"/>
<path d="M84.2838 12.219H59.955L62.3701 4.58496H82.2635L84.2838 12.219Z" fill="white"/>
<path d="M84.2952 12.7899C84.2952 12.7899 84.2895 12.7899 84.2838 12.7899H59.955C59.7718 12.7899 59.6002 12.7043 59.4914 12.5558C59.3827 12.4074 59.3541 12.219 59.4056 12.0477L61.8207 4.41366C61.8951 4.17385 62.1183 4.01398 62.3644 4.01398H82.2578C82.5154 4.01398 82.7443 4.19098 82.813 4.4365L84.8103 11.962C84.8504 12.0362 84.8675 12.1219 84.8675 12.2132C84.8675 12.5273 84.61 12.7842 84.2952 12.7842V12.7899ZM60.7333 11.648H83.5398L81.8172 5.15594H62.7879L60.7333 11.648Z" fill="#332828"/>
<path d="M84.2838 11.7279H59.955V34.0019H84.2838V11.7279Z" fill="#779AFB"/>
<path d="M84.2838 34.5728H59.955C59.6402 34.5728 59.3827 34.3159 59.3827 34.0019V11.7279C59.3827 11.4139 59.6402 11.157 59.955 11.157H84.2838C84.5986 11.157 84.8561 11.4139 84.8561 11.7279V34.0019C84.8561 34.3159 84.5986 34.5728 84.2838 34.5728ZM60.5273 33.4309H83.7115V12.2989H60.5273V33.4309Z" fill="#332828"/>
<path d="M49.6934 33.625L46.1394 35.7719L40.1016 28.7203L46.3741 24.9347L49.6934 33.625Z" fill="#B3F367"/>
<path d="M46.1394 36.3429C45.9734 36.3429 45.8132 36.2743 45.7044 36.143L39.6723 29.0914C39.5636 28.9658 39.5178 28.7945 39.5407 28.6289C39.5693 28.4633 39.6666 28.3149 39.8096 28.2292L46.0821 24.4436C46.2252 24.358 46.4026 24.3352 46.5629 24.3923C46.7231 24.4494 46.849 24.5693 46.912 24.7291L50.2257 33.4194C50.3229 33.6764 50.2257 33.9676 49.9853 34.1103L46.4313 36.2572C46.3397 36.3143 46.2367 36.3372 46.1337 36.3372L46.1394 36.3429ZM40.9772 28.8573L46.2596 35.0296L48.9895 33.3795L46.0879 25.774L40.9772 28.8573Z" fill="#332828"/>
<path d="M48.4915 12.9612C46.9406 10.3975 43.5983 9.57531 41.0287 11.1284C40.6509 11.3511 40.3247 11.6194 40.0214 11.9163C38.2987 10.1748 35.5459 9.76374 33.3483 11.0884C31.0018 12.5044 30.1147 15.4164 31.1735 17.8659C30.6699 17.9916 30.1777 18.1971 29.7084 18.4769C27.1387 20.0242 26.3203 23.3588 27.8713 25.9225C29.0274 27.8295 31.1678 28.7659 33.2453 28.4862C33.3426 29.2113 33.5772 29.9307 33.9835 30.5931C35.5345 33.1568 38.8768 33.9733 41.4464 32.4259C42.8543 31.5752 43.7299 30.1934 43.9875 28.6917C45.4812 29.2399 47.2039 29.1314 48.669 28.2464C51.2386 26.6933 52.057 23.3645 50.5061 20.8008C49.9624 19.9101 49.2069 19.2306 48.337 18.7852C49.4816 17.0894 49.6133 14.8169 48.4801 12.9555L48.4915 12.9612Z" fill="#87D940"/>
<path d="M38.6479 33.7792C36.5246 33.7792 34.6017 32.7 33.5029 30.89C33.1652 30.3362 32.9248 29.7309 32.7817 29.1028C30.5555 29.1942 28.5295 28.0979 27.3906 26.2194C25.6794 23.393 26.5894 19.7045 29.4223 17.9916C29.7428 17.7974 30.0862 17.6319 30.441 17.5005C29.6341 14.9083 30.6985 12.0305 33.0622 10.5974C34.0008 10.0321 35.071 9.7352 36.1584 9.7352C37.572 9.7352 38.957 10.2434 40.0329 11.1455C40.2618 10.9571 40.4965 10.7915 40.7426 10.6431C41.6811 10.0778 42.7514 9.77517 43.8445 9.77517C45.9677 9.77517 47.8907 10.8543 48.9895 12.6643C50.0883 14.4743 50.1341 16.7411 49.144 18.5854C49.9052 19.0764 50.5462 19.7331 51.0098 20.5039C51.8396 21.8742 52.0857 23.4844 51.7022 25.0375C51.3188 26.5905 50.3516 27.9038 48.9781 28.7317C48.0452 29.297 46.975 29.5939 45.8819 29.5939C45.384 29.5939 44.8975 29.5311 44.4168 29.4169C44.0047 30.8729 43.0547 32.1233 41.7498 32.9113C40.8112 33.4765 39.741 33.7792 38.6479 33.7792ZM33.2568 27.9152C33.3827 27.9152 33.5029 27.9552 33.6059 28.0351C33.7261 28.1265 33.8062 28.2635 33.8233 28.412C33.9092 29.0857 34.1324 29.7195 34.4815 30.2962C35.3686 31.7636 36.9253 32.6372 38.6479 32.6372C39.5293 32.6372 40.3992 32.3974 41.1603 31.9349C42.3679 31.204 43.1978 29.9879 43.4324 28.5947C43.461 28.4291 43.564 28.2806 43.7071 28.195C43.8559 28.1093 44.0333 28.0922 44.1936 28.155C45.5671 28.6575 47.1352 28.509 48.3829 27.7553C49.4931 27.0873 50.2772 26.0195 50.5863 24.7634C50.8953 23.5072 50.695 22.2054 50.0254 21.0977C49.5618 20.3326 48.8922 19.7102 48.0853 19.2991C47.9422 19.2249 47.8335 19.0936 47.7934 18.9337C47.7533 18.7738 47.7819 18.6082 47.8735 18.4712C48.9266 16.9124 48.9781 14.8626 48.0051 13.2581C47.1181 11.7907 45.5614 10.9171 43.8387 10.9171C42.9574 10.9171 42.0875 11.1626 41.3263 11.6194C41.0115 11.8079 40.7139 12.042 40.4278 12.3217C40.2046 12.5444 39.8383 12.5387 39.6208 12.3217C38.7166 11.4082 37.4518 10.8829 36.1584 10.8829C35.277 10.8829 34.4128 11.1227 33.6517 11.5795C31.5856 12.8242 30.7501 15.4336 31.7058 17.6433C31.7745 17.7974 31.7688 17.9687 31.6944 18.1229C31.62 18.2713 31.4826 18.3855 31.3224 18.4255C30.8588 18.5454 30.4181 18.7281 30.0118 18.9737C27.7168 20.3554 26.9843 23.3474 28.3693 25.6313C29.2563 27.0987 30.813 27.9723 32.5299 27.9723C32.7474 27.9723 32.9649 27.9552 33.1766 27.9266C33.1995 27.9266 33.2281 27.9266 33.251 27.9266L33.2568 27.9152Z" fill="#332828"/>
<path d="M39.7067 15.6734C39.5121 15.6734 39.3233 15.5763 39.2145 15.3993C38.0985 13.5608 39.0085 12.0362 39.6495 11.4824C39.8898 11.2768 40.2504 11.2997 40.4564 11.5395C40.6625 11.7793 40.6396 12.1333 40.4049 12.3446C40.2905 12.4474 39.329 13.3781 40.1989 14.8112C40.3649 15.0796 40.2733 15.4336 40.0043 15.5935C39.9127 15.6506 39.8097 15.6734 39.7067 15.6734Z" fill="#332828"/>
<path d="M33.4056 29.0686C33.1251 29.0686 32.8848 28.863 32.839 28.5832C32.7932 28.2749 33.005 27.9837 33.3197 27.9323C33.3998 27.9209 34.9737 27.6525 35.6719 26.1851C35.8093 25.8996 36.1469 25.7797 36.4331 25.9168C36.7192 26.0538 36.8394 26.3907 36.7021 26.6762C35.7349 28.7031 33.5773 29.0457 33.4857 29.0629C33.4571 29.0629 33.4285 29.0629 33.3998 29.0629L33.4056 29.0686Z" fill="#332828"/>
<path d="M45.6873 19.6988C45.5156 19.6988 45.3496 19.6246 45.2351 19.4818C45.0405 19.2363 45.0806 18.8766 45.3324 18.6768C46.8433 17.4891 48.5145 18.2371 48.5889 18.2656C48.875 18.397 49.0009 18.7339 48.8693 19.0251C48.7377 19.3105 48.4 19.4362 48.1138 19.3048C48.0623 19.282 46.9921 18.8252 46.0421 19.5732C45.9391 19.6531 45.8132 19.6931 45.6873 19.6931V19.6988Z" fill="#332828"/>
<path d="M93.0172 16.9867L92.3648 12.4017C92.3648 12.4017 92.0328 9.57533 94.1389 8.7417C94.1389 8.7417 96.7944 8.0451 98.6029 9.75233L96.72 18.1115L93.0115 16.9924L93.0172 16.9867Z" fill="#87D940"/>
<path d="M96.7201 18.6768C96.6629 18.6768 96.6056 18.671 96.5541 18.6539L92.8456 17.5348C92.6338 17.472 92.4736 17.2893 92.4449 17.0666L91.7925 12.4816C91.7753 12.3332 91.432 9.19849 93.9215 8.2107C93.9444 8.19928 93.9673 8.19357 93.9902 8.18786C94.0131 8.18215 94.6083 8.02798 95.4267 8.02798C96.4225 8.02798 97.8475 8.25638 98.9921 9.33553C99.1409 9.47256 99.2039 9.67812 99.1581 9.87796L97.2752 18.2371C97.2409 18.3913 97.1436 18.5226 97.0062 18.6025C96.9204 18.6539 96.8174 18.6768 96.7201 18.6768ZM93.5266 16.547L96.2909 17.3806L97.962 9.9579C97.1321 9.31269 96.1421 9.16994 95.4267 9.16994C94.8601 9.16994 94.4251 9.25559 94.3107 9.28414C92.6796 9.96361 92.9257 12.3103 92.9314 12.3332L93.5266 16.547Z" fill="#332828"/>
<path d="M102.895 21.8L106.93 19.4304C106.93 19.4304 109.357 17.9402 108.704 15.7705C108.704 15.7705 107.428 13.064 104.961 12.8528C104.961 12.8528 102.495 14.6 99.8448 19.6988L102.901 21.8H102.895Z" fill="#87D940"/>
<path d="M102.895 22.371C102.781 22.371 102.666 22.3367 102.569 22.2682L99.5129 20.167C99.2783 20.0014 99.1982 19.6874 99.3298 19.4304C102.02 14.2688 104.521 12.4531 104.624 12.3788C104.732 12.2989 104.87 12.2646 105.007 12.2761C107.766 12.5159 109.162 15.3993 109.219 15.5192C109.231 15.5421 109.242 15.5706 109.248 15.5992C110.015 18.1572 107.342 19.8416 107.228 19.9101L103.187 22.2853C103.096 22.3367 102.998 22.3653 102.895 22.3653V22.371ZM100.583 19.5161L102.918 21.1205L106.638 18.9394C106.638 18.9394 108.636 17.6718 108.166 15.9817C108.017 15.6962 106.953 13.7492 105.127 13.4523C104.566 13.9205 102.655 15.6848 100.583 19.5218V19.5161Z" fill="#332828"/>
<path d="M86.1151 44.4736L85.5943 44.2224C81.0044 41.8357 88.5475 19.7045 88.5475 19.7045C90.0526 16.5927 92.7654 16.2387 95.8844 17.7461L100.142 19.8016C103.256 21.3033 104.801 23.6557 103.296 26.7618C103.296 26.7618 90.087 46.0381 86.1151 44.4679V44.4736Z" fill="#E69839"/>
<path d="M86.6246 45.136C86.367 45.136 86.1266 45.0903 85.9092 45.0046L85.354 44.7363C80.4551 42.184 87.2255 21.8343 88.0153 19.5218C88.021 19.499 88.0324 19.4761 88.0439 19.459C89.5719 16.3072 92.5193 15.485 96.142 17.2322L100.4 19.2877C104.091 21.0692 105.333 23.8841 103.817 27.0131C103.805 27.0416 103.788 27.0645 103.771 27.0873C102.506 28.9373 91.2717 45.136 86.6246 45.136ZM89.0855 19.9272C86.2354 28.3092 82.8473 42.1497 85.8691 43.7199L86.3727 43.9598C86.4185 43.9769 86.5158 43.994 86.6303 43.994C89.6864 43.994 97.9677 33.5337 102.804 26.4821C104.326 23.2846 102.071 21.3661 99.9021 20.3212L95.6441 18.2657C92.6281 16.8097 90.356 17.3407 89.0912 19.9272H89.0855Z" fill="#332828"/>
<path d="M101.997 20.9264C101.842 20.9264 101.688 20.8636 101.573 20.7437C101.361 20.5096 101.379 20.1499 101.608 19.9386L104.967 16.8667C105.202 16.6555 105.562 16.6726 105.774 16.901C105.986 17.1351 105.969 17.4948 105.74 17.7061L102.38 20.7723C102.271 20.875 102.134 20.9207 101.997 20.9207V20.9264Z" fill="#332828"/>
<path d="M94.7055 17.4035C94.7055 17.4035 94.6769 17.4035 94.6655 17.4035C94.3507 17.3807 94.1103 17.1066 94.1332 16.7925L94.4594 12.259C94.4823 11.9449 94.7628 11.7165 95.0718 11.7279C95.3866 11.7508 95.627 12.0249 95.6041 12.3389L95.2778 16.8725C95.2549 17.1751 95.0031 17.4035 94.7055 17.4035Z" fill="#332828"/>
<path d="M91.3404 26.4935C91.2545 26.4935 91.1744 26.4763 91.0943 26.4364L87.3342 24.6207C87.048 24.4836 86.9279 24.141 87.0709 23.8555C87.2083 23.57 87.5517 23.4501 87.8378 23.5929L91.5979 25.4086C91.884 25.5456 91.9985 25.8882 91.8611 26.168C91.7639 26.3736 91.5578 26.4878 91.3461 26.4878L91.3404 26.4935Z" fill="#332828"/>
<path d="M88.25 29.514C88.1641 29.514 88.084 29.4968 88.0039 29.4569L85.8405 28.412C85.5544 28.2749 85.4342 27.9323 85.5773 27.6526C85.7146 27.3671 86.058 27.2472 86.3442 27.3842L88.5075 28.4291C88.7936 28.5661 88.9081 28.9087 88.7708 29.1942C88.6735 29.3998 88.4674 29.514 88.2557 29.514H88.25Z" fill="#332828"/>
<path d="M88.0496 35.6748C87.9638 35.6748 87.8836 35.6577 87.8035 35.6177L84.7932 34.1674C84.507 34.0304 84.3868 33.6878 84.5299 33.4023C84.6673 33.1168 85.0107 33.0026 85.2968 33.1397L88.3072 34.59C88.5933 34.727 88.7135 35.0696 88.5704 35.3551C88.4731 35.5606 88.2671 35.6748 88.0553 35.6748H88.0496Z" fill="#332828"/>
<path d="M100.274 19.8701L103.84 15.1595C105.894 12.9384 104.166 11.3225 104.166 11.3225C102.729 9.71809 100.532 9.44972 100.532 9.44972C97.8647 9.09001 97.6243 11.5795 97.6243 11.5795L96.1134 17.8546L100.274 19.8644V19.8701Z" fill="#87D940"/>
<path d="M100.274 20.4411C100.188 20.4411 100.102 20.424 100.022 20.384L95.8616 18.3741C95.6212 18.2542 95.4896 17.9859 95.5525 17.7289L97.0577 11.4881C97.1664 10.5517 97.9104 8.85019 100.022 8.85019C100.211 8.85019 100.406 8.86732 100.606 8.89016C100.698 8.90158 103.027 9.19849 104.589 10.9457C105.293 11.6023 106.186 13.4637 104.257 15.5478L100.732 20.2127C100.623 20.3611 100.451 20.4411 100.274 20.4411ZM96.7773 17.5462L100.102 19.1507L103.382 14.8169C105.018 13.0412 103.902 11.865 103.771 11.7393C102.46 10.2776 100.48 10.0264 100.463 10.0207C100.303 9.99786 100.16 9.98644 100.022 9.98644C98.4198 9.98644 98.208 11.471 98.1909 11.6366C98.1909 11.6594 98.1851 11.688 98.1794 11.7108L96.7715 17.5405L96.7773 17.5462Z" fill="#332828"/>
<path d="M98.2996 19.2192C98.2138 19.2192 98.1337 19.2021 98.0536 19.1621C97.7674 19.0251 97.6472 18.6825 97.7903 18.397L100.452 12.9042C100.589 12.6187 100.932 12.4988 101.218 12.6415C101.505 12.7785 101.619 13.1211 101.482 13.4066L98.8204 18.8994C98.7232 19.105 98.5171 19.2192 98.3054 19.2192H98.2996Z" fill="#332828"/>
<path d="M63.6693 23.867C66.8685 29.3655 65.9242 35.8804 61.5518 38.4155C57.1794 40.9507 51.0385 38.5469 47.8393 33.0483C44.6401 27.5498 45.5844 21.0349 49.9626 18.4998C54.335 15.9646 60.4759 18.3684 63.6751 23.867H63.6693Z" fill="#F8E6C1"/>
<path d="M57.7116 39.9972C53.7684 39.9972 49.6993 37.3821 47.3413 33.3338C45.7274 30.5646 45.0693 27.4527 45.4871 24.5807C45.9163 21.6573 47.3986 19.322 49.6649 18.0087C50.9068 17.2893 52.2975 16.9239 53.7913 16.9239C57.7345 16.9239 61.8036 19.5389 64.1615 23.5872C67.5152 29.3484 66.4736 36.223 61.8322 38.9123C60.5903 39.6317 59.1996 39.9972 57.7058 39.9972H57.7116ZM53.797 18.0658C52.5093 18.0658 51.3132 18.3799 50.2429 18.9965C48.2799 20.1328 46.998 22.1769 46.6202 24.7463C46.2368 27.3671 46.8434 30.2106 48.3314 32.7628C50.489 36.4628 54.169 38.8552 57.7116 38.8552C58.9993 38.8552 60.1954 38.5412 61.2656 37.9245C65.3576 35.5492 66.2161 29.3769 63.1771 24.1582C61.0195 20.4582 57.3396 18.0658 53.797 18.0658Z" fill="#332828"/>
<path d="M62.2042 32.6201C62.124 32.6201 62.0439 32.603 61.9695 32.5687C61.6833 32.4374 61.5574 32.1005 61.6833 31.815C62.9081 29.1257 60.8249 25.6541 60.8077 25.6142C59.1881 22.5594 55.6741 21.6858 55.6398 21.6801C55.3307 21.6059 55.1419 21.2976 55.2163 20.9892C55.2907 20.6809 55.5997 20.4925 55.9088 20.5667C56.0747 20.6067 59.9607 21.5716 61.8035 25.0489C61.8837 25.1802 64.2072 29.04 62.7307 32.2832C62.6334 32.4945 62.4273 32.6201 62.2099 32.6201H62.2042Z" fill="white"/>
<path d="M116.788 21.8309L97.99 35.9941L99.6352 38.1676L118.433 24.0043L116.788 21.8309Z" fill="#E8AE80"/>
<path d="M99.6332 38.7353C99.6332 38.7353 99.5816 38.7353 99.553 38.7353C99.4042 38.7124 99.2669 38.6325 99.1753 38.5126L97.5328 36.3429C97.3439 36.0916 97.3897 35.7319 97.6472 35.5435L116.442 21.3718C116.562 21.2804 116.717 21.2404 116.865 21.2633C117.014 21.2861 117.152 21.3661 117.243 21.486L118.886 23.6614C119.074 23.9126 119.029 24.2724 118.771 24.4608L99.9765 38.6268C99.8792 38.701 99.7533 38.741 99.6332 38.741V38.7353ZM98.7919 36.1031L99.7476 37.3649L117.632 23.8841L116.676 22.6222L98.7919 36.1031Z" fill="#332828"/>
<path d="M2.22173 21.8193L0.576172 23.9924L19.3717 38.1589L21.0172 35.9858L2.22173 21.8193Z" fill="#E8AE80"/>
<path d="M19.3669 38.7353C19.2467 38.7353 19.1265 38.701 19.0235 38.6211L0.228904 24.4551C0.108719 24.3637 0.0285959 24.2267 0.00570357 24.0782C-0.0171888 23.9298 0.0228728 23.7756 0.114442 23.6557L1.76269 21.4803C1.95155 21.229 2.3121 21.1776 2.56392 21.3661L21.3585 35.5378C21.6103 35.7262 21.6618 36.0859 21.473 36.3372L19.8305 38.5069C19.716 38.6553 19.5443 38.7353 19.3726 38.7353H19.3669ZM1.37352 23.8841L19.2581 37.3649L20.2139 36.1031L2.32927 22.6222L1.37352 23.8841Z" fill="#332828"/>
<path d="M34.9394 13.9547C36.9939 17.2265 32.9592 23.4387 25.9369 27.8296C18.909 32.2204 11.5491 33.134 9.49454 29.8622C7.43995 26.5905 10.8051 19.322 17.8331 14.9254C24.861 10.5346 32.8848 10.683 34.9394 13.9547Z" fill="#A66C5B"/>
<path d="M14.2218 32.3974C11.7265 32.3974 9.92377 31.6266 9.00235 30.1649C7.86918 28.3663 8.14389 25.5856 9.74635 22.548C11.3889 19.4305 14.1531 16.547 17.524 14.4401C21.038 12.2418 25.13 10.9857 28.7527 10.9857C31.929 10.9857 34.3613 11.9563 35.4258 13.6521C37.6807 17.2436 33.6459 23.6842 26.2403 28.3149C22.091 30.9071 17.7129 32.3974 14.2275 32.3974H14.2218ZM28.7527 12.1276C25.3417 12.1276 21.4729 13.321 18.1364 15.4108C14.9372 17.4149 12.316 20.1385 10.7651 23.079C9.38007 25.7112 9.0882 28.1322 9.981 29.5596C10.8624 30.9585 12.7739 31.2554 14.2275 31.2554C17.4553 31.2554 21.719 29.7937 25.6336 27.3499C32.2667 23.2046 36.3072 17.2093 34.4529 14.2574C33.6173 12.927 31.4826 12.1276 28.7527 12.1276Z" fill="#332828"/>
<path d="M33.5945 18.5511C34.3442 19.7502 30.6071 23.4387 25.2388 26.7961C19.8706 30.1535 14.9087 31.9007 14.1589 30.7016C13.4092 29.5025 17.1521 25.814 22.5146 22.4566C27.8829 19.0993 32.8448 17.3521 33.5945 18.5511Z" fill="#852E30"/>
<path d="M15.1776 31.6494C14.445 31.6494 13.9414 31.4324 13.6724 31.0042C12.3561 28.9087 18.6801 24.181 22.2113 21.9713C26.4578 19.3162 30.5269 17.5976 32.5758 17.5976C33.3083 17.5976 33.8119 17.8146 34.0809 18.2428C35.3972 20.344 29.0732 25.066 25.5421 27.2757C21.2956 29.9308 17.2265 31.6494 15.1776 31.6494ZM32.5758 18.7453C30.7844 18.7453 26.7725 20.4696 22.8179 22.942C16.7228 26.7504 14.3248 29.8965 14.6396 30.399C14.6568 30.4218 14.7884 30.5075 15.1776 30.5075C16.9689 30.5075 20.9808 28.7831 24.9354 26.3108C31.0248 22.5023 33.4285 19.3562 33.1137 18.8538C33.0966 18.8309 32.9649 18.7453 32.5758 18.7453Z" fill="#332828"/>
<path d="M20.3169 24.3351C23.6878 28.6518 26.3261 36.1659 26.9499 38.0215C27.0072 38.4669 27.1503 38.8951 27.3963 39.2834C28.5467 41.1163 31.3968 41.4017 33.7604 39.9172C36.124 38.4384 37.1141 35.7547 35.9638 33.9219C35.8035 33.665 35.609 33.448 35.3858 33.2481C35.3858 33.2481 28.478 26.9103 25.6565 21.3147" fill="#F8E6C1"/>
<path d="M30.6184 41.4417C30.4353 41.4417 30.2521 41.4303 30.069 41.4132C28.684 41.2761 27.568 40.6252 26.9156 39.586C26.6466 39.1578 26.4692 38.6725 26.3948 38.1472C25.8511 36.5313 23.1898 28.9373 19.8705 24.6777C19.6759 24.4265 19.7217 24.0725 19.9677 23.8784C20.2196 23.6842 20.5801 23.7299 20.769 23.9811C24.1513 28.3206 26.7725 35.6862 27.4936 37.8388C27.505 37.8731 27.5165 37.9073 27.5165 37.9473C27.568 38.3299 27.6882 38.6782 27.877 38.9808C28.3349 39.7174 29.1533 40.1741 30.1777 40.2769C31.2537 40.3854 32.4212 40.0885 33.457 39.4376C35.5517 38.13 36.4617 35.789 35.4773 34.2302C35.3514 34.0304 35.1969 33.8534 35.008 33.6821C34.9851 33.665 34.9679 33.6421 34.9508 33.6193C34.2354 32.957 27.8885 26.9902 25.1529 21.5773C25.0098 21.2975 25.1242 20.955 25.4047 20.8122C25.6851 20.6695 26.0342 20.7837 26.1716 21.0634C28.9129 26.4992 35.7062 32.7685 35.7749 32.8313C35.7921 32.8485 35.8092 32.8599 35.8207 32.877C36.0668 33.0997 36.2728 33.3509 36.4445 33.6193C37.7608 35.7148 36.6906 38.7524 34.058 40.3968C32.9763 41.0706 31.7687 41.4303 30.607 41.4303L30.6184 41.4417Z" fill="#332828"/>
<path opacity="0.7" d="M26.4692 22.0969C26.1887 22.0969 25.9484 21.8914 25.9026 21.6116C25.8568 21.2976 26.0743 21.0121 26.3833 20.9664L31.6772 20.1841C31.9977 20.1385 32.2838 20.3554 32.3296 20.6638C32.3754 20.9778 32.1579 21.2633 31.8489 21.309L26.555 22.0912C26.555 22.0912 26.4978 22.0912 26.4692 22.0912V22.0969Z" fill="#332828"/>
<path opacity="0.7" d="M17.152 30.4446C17.0489 30.4446 16.9459 30.4161 16.8544 30.3647C16.5854 30.1991 16.4995 29.8508 16.6655 29.5768L19.4641 24.9861C19.63 24.7177 19.9792 24.6321 20.2481 24.7977C20.5171 24.9632 20.603 25.3115 20.4427 25.5856L17.6441 30.1763C17.5354 30.3533 17.3465 30.4504 17.152 30.4504V30.4446Z" fill="#332828"/>
<path opacity="0.7" d="M20.397 29.1485C20.357 29.1485 20.3226 29.1485 20.2826 29.1371C19.9735 29.0743 19.7732 28.7717 19.8362 28.4634L20.2997 26.1851C20.3627 25.8768 20.666 25.677 20.975 25.7398C21.2841 25.8026 21.4844 26.1052 21.4214 26.4135L20.9579 28.6917C20.9006 28.9601 20.666 29.1485 20.397 29.1485Z" fill="#332828"/>
<path opacity="0.7" d="M29.6798 23.3474H29.6684L27.2074 23.296C26.8927 23.2903 26.6409 23.0276 26.6466 22.7136C26.6523 22.3995 26.9213 22.1654 27.2303 22.154L29.6913 22.2054C30.006 22.2111 30.2578 22.4738 30.2521 22.7878C30.2464 23.0961 29.9889 23.3474 29.6798 23.3474Z" fill="#332828"/>
<path d="M104.274 33.271H15.252V79.429H104.274V33.271Z" fill="#E8AE80"/>
<path d="M104.269 80H15.252C14.9372 80 14.6797 79.743 14.6797 79.429V33.271C14.6797 32.957 14.9372 32.7 15.252 32.7H104.269C104.584 32.7 104.841 32.957 104.841 33.271V79.429C104.841 79.743 104.584 80 104.269 80ZM15.8186 78.858H103.696V33.842H15.8243V78.858H15.8186Z" fill="#332828"/>
<path d="M68.7513 33.271H50.5233V45.5528H68.7513V33.271Z" fill="#DCB878"/>
<path d="M68.7571 46.1237H50.5291C50.2143 46.1237 49.9568 45.8668 49.9568 45.5528V33.271C49.9568 32.957 50.2143 32.7 50.5291 32.7H68.7571C69.0719 32.7 69.3294 32.957 69.3294 33.271V45.5528C69.3294 45.8668 69.0719 46.1237 68.7571 46.1237ZM51.1014 44.9818H68.1848V33.842H51.1014V44.9818Z" fill="#332828"/>
<path d="M56.4467 65.9824H25.1987V68.0151H56.4467V65.9824Z" fill="white"/>
<path d="M47.9251 70.7558H25.1987V72.7885H47.9251V70.7558Z" fill="white"/>
</g>
<defs>
<clipPath id="clip0_2042_5248">
<rect width="119" height="80" fill="white"/>
</clipPath>
</defs>
</svg>
