<svg width="34" height="34" viewBox="0 0 34 34" fill="none" xmlns="http://www.w3.org/2000/svg">
<mask id="mask0_4004_3839" style="mask-type:alpha" maskUnits="userSpaceOnUse" x="0" y="0" width="34" height="34">
<rect width="34" height="34" fill="#D9D9D9"/>
</mask>
<g mask="url(#mask0_4004_3839)">
<path d="M23.6667 22C24.5834 22 25.3334 21.25 25.3334 20.3333V10.3333C25.3334 9.41663 24.5834 8.66663 23.6667 8.66663H10.3334C9.41669 8.66663 8.66669 9.41663 8.66669 10.3333V25.3333L12 22H23.6667ZM12.8334 15.3333C12.8334 14.8729 13.2063 14.5 13.6667 14.5C14.1271 14.5 14.5 14.8729 14.5 15.3333C14.5 15.7937 14.1271 16.1666 13.6667 16.1666C13.2063 16.1666 12.8334 15.7937 12.8334 15.3333ZM16.1667 15.3333C16.1667 14.8729 16.5396 14.5 17 14.5C17.4604 14.5 17.8334 14.8729 17.8334 15.3333C17.8334 15.7937 17.4604 16.1666 17 16.1666C16.5396 16.1666 16.1667 15.7937 16.1667 15.3333ZM19.5 15.3333C19.5 14.8729 19.8729 14.5 20.3334 14.5C20.7938 14.5 21.1667 14.8729 21.1667 15.3333C21.1667 15.7937 20.7938 16.1666 20.3334 16.1666C19.8729 16.1666 19.5 15.7937 19.5 15.3333Z" fill="#BDBDBD"/>
</g>
</svg>
