<svg width="34" height="34" viewBox="0 0 34 34" fill="none" xmlns="http://www.w3.org/2000/svg">
<mask id="mask0_194_9247" style="mask-type:alpha" maskUnits="userSpaceOnUse" x="0" y="0" width="34" height="34">
<rect width="34" height="34" fill="#D9D9D9"/>
</mask>
<g mask="url(#mask0_194_9247)">
<path d="M11.9583 8.83335H10.5833C9.575 8.83335 8.75 9.65835 8.75 10.6667V21.6461C8.75 22.6544 9.575 23.4794 10.5833 23.4794H11.9583V8.83335Z" fill="#BDBDBD"/>
<path d="M24.4378 16.8514L19.75 12.1641V10.6667C19.75 9.65835 18.925 8.83335 17.9167 8.83335H14.7083V23.4794H17.9167C18.925 23.4794 19.75 22.6544 19.75 21.6461V19.9447L20.7217 20.9164L22.0183 19.6202L19.8811 17.483L16.9931 14.5951C16.8199 14.4218 16.725 14.1899 16.7255 13.9424C16.7259 13.6976 16.8203 13.4689 16.9931 13.2971C17.3387 12.951 17.946 12.9519 18.2911 13.2971L20.2083 15.2147L23.149 18.1554L23.116 18.1453L23.166 18.1783C23.226 18.2686 23.4167 18.6128 23.4167 19.3544V25.3127H16.0833C15.2056 25.3127 14.431 24.5643 14.2807 23.5715L14.2702 23.5H12.4162L12.4685 23.8456C12.7531 25.7271 14.3073 27.1461 16.0838 27.1461H25.2505V19.3544C25.25 17.7631 24.634 17.0407 24.4378 16.8514Z" fill="#BDBDBD"/>
</g>
</svg>
