<svg width="24" height="24" viewBox="0 0 24 24" fill="none" xmlns="http://www.w3.org/2000/svg">
<path d="M4.61538 13.3196C4.27552 13.3196 4 13.5951 4 13.935C4 18.346 7.58892 21.9349 12 21.9349C16.4111 21.9349 20 18.346 20 13.935C20 9.52387 16.4111 5.93495 12 5.93495H6.61169L8.7859 3.24514C8.99963 2.98073 8.95848 2.5931 8.69401 2.37945C8.42964 2.16589 8.04223 2.207 7.82857 2.47129L5.03929 5.92167C4.74286 6.28836 4.74286 6.81231 5.03929 7.17901L7.82857 10.6294C8.04223 10.8937 8.42964 10.9348 8.69401 10.7212C8.95848 10.5076 8.99963 10.1199 8.7859 9.85553L6.61169 7.16572H12C15.7323 7.16572 18.7692 10.2026 18.7692 13.935C18.7692 17.6673 15.7323 20.7042 12 20.7042C8.26769 20.7042 5.23077 17.6673 5.23077 13.935C5.23077 13.5951 4.95525 13.3196 4.61538 13.3196Z" fill="#828282"/>
</svg>
