<svg width="30" height="30" viewBox="0 0 30 30" fill="none" xmlns="http://www.w3.org/2000/svg">
<mask id="mask0_2164_136" style="mask-type:alpha" maskUnits="userSpaceOnUse" x="0" y="0" width="30" height="30">
<rect width="30" height="30" fill="#D9D9D9"/>
</mask>
<g mask="url(#mask0_2164_136)">
</g>
<g clip-path="url(#clip0_2164_136)">
<path d="M16.8013 7.94006L16.8014 7.94012L16.8076 7.93331C18.5504 6.02436 21.3976 6.01962 23.1748 7.93476C24.9421 9.87213 24.9395 13.0111 23.1803 14.9133L15.0114 23.2841L6.84109 14.9119C5.05336 13.0101 5.0507 9.87305 6.84671 7.93615L6.84672 7.93616L6.84933 7.93331C8.59261 6.0239 11.4407 6.01962 13.2178 7.93615L13.2178 7.93617L13.2215 7.94006L14.6484 9.4462L15.0114 9.82931L15.3744 9.4462L16.8013 7.94006Z" fill="#F4744B" stroke="#F4744B"/>
</g>
<defs>
<clipPath id="clip0_2164_136">
<rect width="20" height="18" fill="white" transform="translate(5 6)"/>
</clipPath>
</defs>
</svg>
