<svg width="60" height="60" viewBox="0 0 60 60" fill="none" xmlns="http://www.w3.org/2000/svg">
<circle cx="30" cy="30" r="29.25" fill="white" stroke="#E0E0E0" stroke-width="1.5"/>
<path fill-rule="evenodd" clip-rule="evenodd" d="M43.5 30.3069C43.5 29.3496 43.4123 28.4292 43.2495 27.5455H30.2755V32.7676H37.6892C37.3699 34.4551 36.3993 35.8849 34.9404 36.8421V40.2294H39.3924C41.9972 37.8792 43.5 34.4183 43.5 30.3069Z" fill="#4285F4"/>
<path fill-rule="evenodd" clip-rule="evenodd" d="M30.2755 43.5C33.9949 43.5 37.1132 42.2912 39.3924 40.2294L34.9404 36.8421C33.7069 37.6521 32.129 38.1307 30.2755 38.1307C26.6876 38.1307 23.6508 35.7559 22.5675 32.565H17.9652V36.0627C20.2319 40.4748 24.8905 43.5 30.2755 43.5Z" fill="#34A853"/>
<path fill-rule="evenodd" clip-rule="evenodd" d="M22.5675 32.565C22.292 31.755 22.1354 30.8898 22.1354 30.0001C22.1354 29.1103 22.292 28.2451 22.5675 27.4351V23.9373H17.9652C17.0322 25.7598 16.5 27.8217 16.5 30.0001C16.5 32.1785 17.0322 34.2402 17.9652 36.0627L22.5675 32.565Z" fill="#FBBC05"/>
<path fill-rule="evenodd" clip-rule="evenodd" d="M30.2755 21.8693C32.298 21.8693 34.1139 22.5505 35.5415 23.8882L39.4926 20.0161C37.1069 17.8377 33.9887 16.5 30.2755 16.5C24.8905 16.5 20.2319 19.5253 17.9652 23.9373L22.5675 27.4351C23.6507 24.2442 26.6876 21.8693 30.2755 21.8693Z" fill="#EA4335"/>
</svg>
