<svg width="35" height="33" viewBox="0 0 35 33" fill="none" xmlns="http://www.w3.org/2000/svg">
<path d="M16.0098 1.25954C16.5477 -0.395938 18.8898 -0.395937 19.4277 1.25954L22.1564 9.65771C22.397 10.3981 23.0869 10.8993 23.8653 10.8993H32.6957C34.4364 10.8993 35.1601 13.1268 33.7519 14.1499L26.608 19.3403C25.9782 19.7978 25.7147 20.6089 25.9552 21.3492L28.6839 29.7474C29.2218 31.4029 27.3271 32.7795 25.9188 31.7564L18.7749 26.566C18.1451 26.1084 17.2924 26.1084 16.6626 26.566L9.51867 31.7564C8.11043 32.7795 6.21566 31.4029 6.75356 29.7474L9.48229 21.3492C9.72285 20.6089 9.45932 19.7978 8.82954 19.3403L1.68563 14.1499C0.277393 13.1268 1.00113 10.8993 2.74181 10.8993H11.5722C12.3506 10.8993 13.0405 10.3981 13.2811 9.65771L16.0098 1.25954Z" fill="#E0E0E0"/>
</svg>
