<svg width="24" height="24" viewBox="0 0 24 24" fill="none" xmlns="http://www.w3.org/2000/svg">
<mask id="mask0_2042_382" style="mask-type:alpha" maskUnits="userSpaceOnUse" x="0" y="0" width="24" height="24">
<rect x="0.5" y="0.5" width="23" height="23" fill="#D9D9D9" stroke="#212121"/>
</mask>
<g mask="url(#mask0_2042_382)">
<mask id="path-2-inside-1_2042_382" fill="white">
<path d="M12 21.5C10.6833 21.5 9.45 21.25 8.3 20.75C7.15 20.25 6.14567 19.575 5.287 18.725C4.429 17.875 3.75 16.8707 3.25 15.712C2.75 14.554 2.5 13.3167 2.5 12C2.5 10.6833 2.75 9.44567 3.25 8.287C3.75 7.129 4.429 6.12067 5.287 5.262C6.14567 4.404 7.15 3.729 8.3 3.237C9.45 2.74567 10.6833 2.5 12 2.5C13.3167 2.5 14.5543 2.74567 15.713 3.237C16.871 3.729 17.8793 4.404 18.738 5.262C19.596 6.12067 20.271 7.129 20.763 8.287C21.2543 9.44567 21.5 10.6833 21.5 12C21.5 13.3167 21.2543 14.55 20.763 15.7C20.271 16.85 19.596 17.854 18.738 18.712C17.8793 19.5707 16.871 20.25 15.713 20.75C14.5543 21.25 13.3167 21.5 12 21.5ZM12 20.15C14.2833 20.15 16.2127 19.3623 17.788 17.787C19.3627 16.2123 20.15 14.2833 20.15 12C20.15 9.71667 19.3627 7.78733 17.788 6.212C16.2127 4.63733 14.2833 3.85 12 3.85C9.71667 3.85 7.78767 4.63733 6.213 6.212C4.63767 7.78733 3.85 9.71667 3.85 12C3.85 14.2833 4.63767 16.2123 6.213 17.787C7.78767 19.3623 9.71667 20.15 12 20.15Z"/>
</mask>
<path d="M12 21.5C10.6833 21.5 9.45 21.25 8.3 20.75C7.15 20.25 6.14567 19.575 5.287 18.725C4.429 17.875 3.75 16.8707 3.25 15.712C2.75 14.554 2.5 13.3167 2.5 12C2.5 10.6833 2.75 9.44567 3.25 8.287C3.75 7.129 4.429 6.12067 5.287 5.262C6.14567 4.404 7.15 3.729 8.3 3.237C9.45 2.74567 10.6833 2.5 12 2.5C13.3167 2.5 14.5543 2.74567 15.713 3.237C16.871 3.729 17.8793 4.404 18.738 5.262C19.596 6.12067 20.271 7.129 20.763 8.287C21.2543 9.44567 21.5 10.6833 21.5 12C21.5 13.3167 21.2543 14.55 20.763 15.7C20.271 16.85 19.596 17.854 18.738 18.712C17.8793 19.5707 16.871 20.25 15.713 20.75C14.5543 21.25 13.3167 21.5 12 21.5ZM12 20.15C14.2833 20.15 16.2127 19.3623 17.788 17.787C19.3627 16.2123 20.15 14.2833 20.15 12C20.15 9.71667 19.3627 7.78733 17.788 6.212C16.2127 4.63733 14.2833 3.85 12 3.85C9.71667 3.85 7.78767 4.63733 6.213 6.212C4.63767 7.78733 3.85 9.71667 3.85 12C3.85 14.2833 4.63767 16.2123 6.213 17.787C7.78767 19.3623 9.71667 20.15 12 20.15Z" fill="black"/>
<path d="M5.287 18.725L4.58321 19.4354L4.58349 19.4357L5.287 18.725ZM3.25 15.712L4.16816 15.3158L4.16808 15.3156L3.25 15.712ZM3.25 8.287L2.33192 7.89059L2.33184 7.89079L3.25 8.287ZM5.287 5.262L4.58017 4.55462L4.57962 4.55517L5.287 5.262ZM8.3 3.237L7.90711 2.31741L7.90666 2.31761L8.3 3.237ZM15.713 3.237L16.104 2.31663L16.1034 2.31635L15.713 3.237ZM18.738 5.262L19.4454 4.55517L19.4448 4.55462L18.738 5.262ZM20.763 8.287L21.6836 7.8966L21.6834 7.89596L20.763 8.287ZM20.763 15.7L21.6824 16.0933L21.6826 16.0929L20.763 15.7ZM15.713 20.75L16.1092 21.6682L16.1094 21.6681L15.713 20.75ZM17.788 6.212L18.4953 5.50504L18.495 5.50474L17.788 6.212ZM6.213 17.787L6.92026 17.08L6.91996 17.0797L6.213 17.787ZM12 20.5C10.8135 20.5 9.71666 20.2755 8.69873 19.8329L7.90127 21.6671C9.18334 22.2245 10.5531 22.5 12 22.5V20.5ZM8.69873 19.8329C7.65785 19.3804 6.7579 18.774 5.99051 18.0143L4.58349 19.4357C5.53343 20.376 6.64215 21.1196 7.90127 21.6671L8.69873 19.8329ZM5.99079 18.0146C5.22774 17.2587 4.61977 16.3623 4.16816 15.3158L2.33184 16.1082C2.88023 17.379 3.63026 18.4913 4.58321 19.4354L5.99079 18.0146ZM4.16808 15.3156C3.72449 14.2882 3.5 13.1864 3.5 12H1.5C1.5 13.4469 1.77551 14.8198 2.33192 16.1084L4.16808 15.3156ZM3.5 12C3.5 10.8136 3.72449 9.71134 4.16816 8.68321L2.33184 7.89079C1.77551 9.17999 1.5 10.5531 1.5 12H3.5ZM4.16808 8.68341C4.62005 7.63664 5.22905 6.73476 5.99438 5.96883L4.57962 4.55517C3.62895 5.50657 2.87995 6.62136 2.33192 7.89059L4.16808 8.68341ZM5.99383 5.96938C6.75969 5.20411 7.65675 4.59988 8.69334 4.15639L7.90666 2.31761C6.64326 2.85812 5.53164 3.60389 4.58017 4.55462L5.99383 5.96938ZM8.69289 4.15659C9.71219 3.72109 10.8111 3.5 12 3.5V1.5C10.5555 1.5 9.18781 1.77024 7.90711 2.31741L8.69289 4.15659ZM12 3.5C13.1888 3.5 14.2931 3.72109 15.3226 4.15765L16.1034 2.31635C14.8156 1.77024 13.4445 1.5 12 1.5V3.5ZM15.322 4.15737C16.3664 4.60113 17.2665 5.20527 18.0312 5.96938L19.4448 4.55462C18.4922 3.60273 17.3756 2.85687 16.104 2.31663L15.322 4.15737ZM18.0306 5.96883C18.7947 6.73354 19.3989 7.63359 19.8426 8.67804L21.6834 7.89596C21.1431 6.62441 20.3973 5.50779 19.4454 4.55517L18.0306 5.96883ZM19.8424 8.6774C20.2789 9.70689 20.5 10.8112 20.5 12H22.5C22.5 10.5555 22.2298 9.18444 21.6836 7.8966L19.8424 8.6774ZM20.5 12C20.5 13.1889 20.2789 14.2878 19.8434 15.3071L21.6826 16.0929C22.2298 14.8122 22.5 13.4445 22.5 12H20.5ZM19.8436 15.3067C19.4002 16.3432 18.796 17.2398 18.0309 18.0049L19.4451 19.4191C20.396 18.4682 21.1418 17.3568 21.6824 16.0933L19.8436 15.3067ZM18.0309 18.0049C17.265 18.7708 16.3632 19.38 15.3166 19.8319L16.1094 21.6681C17.3788 21.12 18.4937 20.3705 19.4451 19.4191L18.0309 18.0049ZM15.3168 19.8318C14.2887 20.2755 13.1864 20.5 12 20.5V22.5C13.4469 22.5 14.82 22.2245 16.1092 21.6682L15.3168 19.8318ZM12 21.15C14.5412 21.15 16.7271 20.2621 18.4951 18.4941L17.0809 17.0799C15.6983 18.4625 14.0255 19.15 12 19.15V21.15ZM18.4951 18.4941C20.2626 16.7266 21.15 14.541 21.15 12H19.15C19.15 14.0256 18.4628 15.698 17.0809 17.0799L18.4951 18.4941ZM21.15 12C21.15 9.45898 20.2626 7.27311 18.4953 5.50504L17.0807 6.91896C18.4628 8.30156 19.15 9.97435 19.15 12H21.15ZM18.495 5.50474C16.7269 3.73742 14.541 2.85 12 2.85V4.85C14.0256 4.85 15.6984 5.53724 17.081 6.91926L18.495 5.50474ZM12 2.85C9.45897 2.85 7.27335 3.73744 5.50589 5.50489L6.92011 6.91911C8.30198 5.53723 9.97436 4.85 12 4.85V2.85ZM5.50589 5.50489C3.73786 7.27293 2.85 9.45885 2.85 12H4.85C4.85 9.97449 5.53748 8.30174 6.92011 6.91911L5.50589 5.50489ZM2.85 12C2.85 14.5412 3.73787 16.7268 5.50604 18.4943L6.91996 17.0797C5.53746 15.6978 4.85 14.0255 4.85 12H2.85ZM5.50574 18.494C7.27317 20.2621 9.45884 21.15 12 21.15V19.15C9.97449 19.15 8.30216 18.4625 6.92026 17.08L5.50574 18.494Z" fill="#212121" mask="url(#path-2-inside-1_2042_382)"/>
</g>
<path d="M12.2727 7L9 12H14.5L11.2727 17" stroke="#212121" stroke-width="1.5" stroke-linecap="round" stroke-linejoin="round"/>
</svg>
