<svg width="24" height="24" viewBox="0 0 24 24" fill="none" xmlns="http://www.w3.org/2000/svg">
<mask id="mask0_2042_470" style="mask-type:alpha" maskUnits="userSpaceOnUse" x="0" y="0" width="24" height="24">
<rect width="24" height="24" fill="#D9D9D9"/>
</mask>
<g mask="url(#mask0_2042_470)">
<path fill-rule="evenodd" clip-rule="evenodd" d="M12 4C8.2129 4 5.14286 7.07004 5.14286 10.8571V15.9238C5.14286 16.0395 5.04905 16.1333 4.93333 16.1333C4.41787 16.1333 4 16.5512 4 17.0667C4 17.5821 4.41787 18 4.93333 18H19.0667C19.5821 18 20 17.5821 20 17.0667C20 16.5512 19.5821 16.1333 19.0667 16.1333C18.951 16.1333 18.8571 16.0395 18.8571 15.9238V10.8571C18.8571 7.07005 15.7871 4 12 4Z" fill="white"/>
<path d="M12 3V6.5" stroke="white" stroke-width="2" stroke-linecap="round" stroke-linejoin="round"/>
<path fill-rule="evenodd" clip-rule="evenodd" d="M9 19C9 20.6569 10.3431 22 12 22C13.6569 22 15 20.6569 15 19H9Z" fill="white"/>
</g>
</svg>
