<svg width="24" height="24" viewBox="0 0 24 24" fill="none" xmlns="http://www.w3.org/2000/svg">
<path d="M4.853 18.5135C6.0345 18.221 7.252 17.892 8.1255 17.892C8.467 17.892 8.756 17.9425 8.9695 18.0645C9.7065 18.487 10.1285 20.1985 10.592 21.8155C11.2105 21.933 11.847 22 12.5 22C13.153 22 13.7895 21.933 14.408 21.816C14.871 20.199 15.2935 18.4875 16.03 18.0655C16.2435 17.943 16.5325 17.893 16.874 17.893C17.7475 17.893 18.9655 18.222 20.1465 18.5145C20.949 17.5905 21.579 16.5195 21.9995 15.348C20.8275 14.145 19.5635 12.9025 19.5635 12.001C19.5635 11.099 20.8275 9.857 21.9995 8.654C21.579 7.4825 20.949 6.4115 20.1465 5.4875C18.965 5.78 17.7475 6.109 16.874 6.109C16.5325 6.109 16.2435 6.0585 16.03 5.9365C15.293 5.514 14.871 3.8025 14.4075 2.1855C13.7895 2.067 13.153 2 12.5 2C11.847 2 11.2105 2.067 10.592 2.184C10.129 3.801 9.7065 5.5125 8.9695 5.9345C8.756 6.057 8.467 6.107 8.1255 6.107C7.252 6.107 6.034 5.778 4.853 5.4855C4.0505 6.4105 3.4205 7.481 3 8.653C4.172 9.856 5.436 11.098 5.436 12C5.436 12.902 4.1725 14.144 3 15.347C3.4205 16.5185 4.0505 17.5895 4.853 18.5135ZM9.5 12C9.5 10.343 10.843 9 12.5 9C14.157 9 15.5 10.343 15.5 12C15.5 13.657 14.157 15 12.5 15C10.843 15 9.5 13.657 9.5 12Z" fill="#212121"/>
</svg>
