<svg width="35" height="33" viewBox="0 0 35 33" fill="none" xmlns="http://www.w3.org/2000/svg">
<path d="M15.8536 1.25954C16.3915 -0.395938 18.7335 -0.395937 19.2714 1.25954L22.0002 9.65771C22.2407 10.3981 22.9306 10.8993 23.7091 10.8993H32.5394C34.2801 10.8993 35.0039 13.1268 33.5956 14.1499L26.4517 19.3403C25.8219 19.7978 25.5584 20.6089 25.799 21.3492L28.5277 29.7474C29.0656 31.4029 27.1708 32.7795 25.7626 31.7564L18.6187 26.566C17.9889 26.1084 17.1361 26.1084 16.5063 26.566L9.36242 31.7564C7.95418 32.7795 6.05941 31.4029 6.59731 29.7474L9.32604 21.3492C9.5666 20.6089 9.30307 19.7978 8.67329 19.3403L1.52938 14.1499C0.121143 13.1268 0.844881 10.8993 2.58556 10.8993H11.4159C12.1944 10.8993 12.8843 10.3981 13.1248 9.65771L15.8536 1.25954Z" fill="#F2C94C"/>
</svg>
