<svg width="60" height="60" viewBox="0 0 60 60" fill="none" xmlns="http://www.w3.org/2000/svg">
<circle cx="30" cy="30" r="30" fill="#FCE100"/>
<path d="M30.3607 15C21.0271 15 13.5 21.0216 13.5 28.332C13.5 33.0771 16.6313 37.232 21.3282 39.6046L19.7385 45.542C19.7085 45.631 19.7039 45.7265 19.7252 45.818C19.7464 45.9094 19.7927 45.9932 19.8589 46.0598C19.9554 46.1449 20.0795 46.192 20.2082 46.1923C20.3148 46.1837 20.416 46.1416 20.4972 46.0719L27.3379 41.4593C28.3476 41.5987 29.3655 41.671 30.3848 41.676C39.7064 41.676 47.2456 35.6544 47.2456 28.332C47.2456 21.0096 39.6823 15 30.3607 15Z" fill="#392020"/>
<path d="M19.4007 26.2243H17.5581C17.3297 26.231 17.1042 26.1725 16.9078 26.0557C16.8206 26.0011 16.7456 25.929 16.6876 25.844C16.6295 25.759 16.5897 25.663 16.5706 25.5619C16.5647 25.4978 16.5647 25.4334 16.5706 25.3693C16.5648 25.2494 16.5881 25.1297 16.6384 25.0207C16.6887 24.9117 16.7646 24.8165 16.8596 24.743C17.0696 24.591 17.323 24.5106 17.5822 24.5141H23.1342C23.3644 24.506 23.5915 24.5691 23.7845 24.6948C23.8738 24.747 23.9503 24.8185 24.0087 24.9039C24.067 24.9892 24.1056 25.0865 24.1218 25.1886C24.1276 25.2487 24.1276 25.3092 24.1218 25.3693C24.1274 25.491 24.1042 25.6122 24.054 25.7232C24.0037 25.8341 23.9279 25.9315 23.8327 26.0075C23.6279 26.1594 23.3769 26.236 23.1221 26.2243H21.3397V32.5592C21.347 32.6941 21.3261 32.8291 21.2784 32.9555C21.2307 33.082 21.1573 33.1972 21.0627 33.2938C20.9721 33.3862 20.8631 33.4585 20.7428 33.5062C20.6225 33.5539 20.4935 33.5759 20.3642 33.5708C20.138 33.5772 19.9166 33.5049 19.738 33.3661C19.5678 33.2305 19.4524 33.038 19.4128 32.8241C19.4009 32.7362 19.4009 32.6471 19.4128 32.5592L19.4007 26.2243Z" fill="#FEE500"/>
<path d="M24.6533 24.9838C24.7063 24.7857 24.8307 24.614 25.0026 24.5021C25.1857 24.3983 25.3945 24.3482 25.6048 24.3576H26.0624C26.2856 24.3496 26.5066 24.4038 26.7007 24.5141C26.9064 24.6525 27.0526 24.8631 27.1102 25.1042L29.5189 31.9088C29.5813 32.0863 29.6336 32.2673 29.6754 32.4508C29.6796 32.527 29.6796 32.6034 29.6754 32.6796C29.6795 32.797 29.6579 32.9138 29.6121 33.022C29.5664 33.1301 29.4976 33.227 29.4105 33.3059C29.3261 33.3923 29.2248 33.4605 29.1129 33.5061C29.001 33.5517 28.8809 33.5737 28.7601 33.5708C28.5744 33.5893 28.3878 33.5447 28.2305 33.4442C28.0732 33.3437 27.9543 33.1931 27.893 33.0168L27.3872 31.5355H24.2198L23.714 33.0168C23.6541 33.1966 23.5338 33.3501 23.3735 33.4511C23.2132 33.5521 23.0228 33.5944 22.8348 33.5708C22.6311 33.5761 22.4317 33.5124 22.2687 33.3901C22.11 33.2639 22.0029 33.0841 21.9677 32.8844C21.9613 32.8163 21.9613 32.7477 21.9677 32.6796C21.947 32.56 21.947 32.4379 21.9677 32.3184C21.9677 32.1859 22.052 32.0413 22.1001 31.9088L24.6533 24.9838ZM25.8577 26.5616L24.7135 30.1746H26.9897L25.8577 26.5616Z" fill="#FEE500"/>
<path d="M29.9512 25.3694C29.939 25.0992 30.0343 24.8351 30.2162 24.6348C30.3087 24.5415 30.4197 24.4686 30.5421 24.4209C30.6645 24.3732 30.7955 24.3516 30.9268 24.3577C31.1524 24.3551 31.3725 24.4271 31.553 24.5625C31.7203 24.7038 31.8314 24.9003 31.8661 25.1164C31.878 25.2003 31.878 25.2856 31.8661 25.3694V31.7043H35.1781C35.4076 31.7013 35.6333 31.7638 35.8284 31.8848C35.9161 31.9389 35.9914 32.0109 36.0495 32.0959C36.1076 32.181 36.1472 32.2773 36.1656 32.3786C36.1656 32.3786 36.1656 32.4991 36.1656 32.5593C36.1714 32.6792 36.1481 32.7987 36.0978 32.9077C36.0474 33.0168 35.9716 33.1121 35.8766 33.1856C35.6666 33.3377 35.4132 33.4178 35.154 33.4143H31.0833C30.8241 33.431 30.5664 33.3635 30.3487 33.2218C30.154 33.0762 30.0242 32.8599 29.9874 32.6196C29.9785 32.4873 29.9785 32.3544 29.9874 32.2221L29.9512 25.3694Z" fill="#FEE500"/>
<path d="M36.3826 25.3695C36.3754 25.1 36.47 24.8377 36.6475 24.6349C36.828 24.4709 37.0596 24.374 37.3031 24.3608C37.5466 24.3477 37.7872 24.4189 37.9843 24.5625C38.1553 24.7026 38.2706 24.899 38.3095 25.1165C38.3155 25.2007 38.3155 25.2853 38.3095 25.3695V28.3201L41.3565 24.8034C41.4739 24.6834 41.5986 24.5709 41.7298 24.4662C41.8535 24.3926 41.9954 24.3549 42.1393 24.3578C42.3498 24.3566 42.5557 24.4196 42.7294 24.5384C42.8113 24.5936 42.8813 24.6647 42.9351 24.7475C42.9889 24.8303 43.0254 24.923 43.0426 25.0202C43.0474 25.044 43.0474 25.0687 43.0426 25.0925C43.0367 25.1203 43.0367 25.149 43.0426 25.1768C43.0422 25.3035 43.009 25.428 42.9462 25.5381C42.8823 25.6547 42.8056 25.7637 42.7174 25.8632L40.7182 28.0552L43.1269 31.7886V31.909C43.2519 32.0816 43.3494 32.2726 43.4159 32.4751V32.5353C43.4298 32.6748 43.4097 32.8157 43.3573 32.9457C43.3049 33.0758 43.2216 33.1911 43.1148 33.2819C42.9139 33.4338 42.6681 33.5144 42.4163 33.5108C42.249 33.5177 42.0828 33.4802 41.9346 33.4024C41.7742 33.2948 41.642 33.1502 41.5492 32.9809L39.3091 29.3678L38.2373 30.4879V32.4991C38.2445 32.7686 38.1499 33.0309 37.9723 33.2337C37.8771 33.3267 37.7639 33.3994 37.6396 33.447C37.5154 33.4947 37.3827 33.5164 37.2497 33.5108C37.0275 33.5155 36.8105 33.4431 36.6355 33.3061C36.4654 33.1705 36.3499 32.9781 36.3103 32.7642C36.2984 32.6762 36.2984 32.587 36.3103 32.4991L36.3826 25.3695Z" fill="#FEE500"/>
</svg>
