<svg width="34" height="34" viewBox="0 0 34 34" fill="none" xmlns="http://www.w3.org/2000/svg">
<mask id="mask0_194_9257" style="mask-type:alpha" maskUnits="userSpaceOnUse" x="0" y="0" width="34" height="34">
<rect width="34" height="34" fill="#D9D9D9"/>
</mask>
<g mask="url(#mask0_194_9257)">
<path d="M17.9468 7.2942C17.5322 6.69111 16.6417 6.69111 16.2271 7.2942L13.2729 11.5912C13.0783 11.8743 12.7567 12.0435 12.4131 12.0435H8.37773C7.7134 12.0435 7.21822 12.656 7.35741 13.3056L9.91021 25.2186C10.0133 25.6998 10.4385 26.0435 10.9305 26.0435H23.2434C23.7354 26.0435 24.1606 25.6998 24.2637 25.2186L26.8165 13.3056C26.9557 12.656 26.4605 12.0435 25.7962 12.0435H21.7609C21.4172 12.0435 21.0957 11.8743 20.901 11.5912L17.9468 7.2942ZM16.351 10.6443C16.7059 10.1282 17.468 10.1282 17.8229 10.6443C18.2304 11.2369 17.8061 12.0435 17.087 12.0435C16.3678 12.0435 15.9436 11.2369 16.351 10.6443ZM15.087 22.0435C14.5347 22.0435 14.087 21.5958 14.087 21.0435V17.0435C14.087 16.4912 14.5347 16.0435 15.087 16.0435C15.6392 16.0435 16.087 16.4912 16.087 17.0435V21.0435C16.087 21.5958 15.6392 22.0435 15.087 22.0435ZM19.087 22.0435C18.5347 22.0435 18.087 21.5958 18.087 21.0435V17.0435C18.087 16.4912 18.5347 16.0435 19.087 16.0435C19.6392 16.0435 20.087 16.4912 20.087 17.0435V21.0435C20.087 21.5958 19.6392 22.0435 19.087 22.0435Z" fill="#BDBDBD"/>
</g>
</svg>
