<svg width="24" height="24" viewBox="0 0 24 24" fill="none" xmlns="http://www.w3.org/2000/svg">
<path d="M4.25664 5.07702C4.30104 5.11495 4.33426 5.16428 4.35272 5.21968L7.30588 14.0801C7.38477 14.3168 7.37234 14.5744 7.27104 14.8024L5.58628 18.5939C5.29244 19.2552 5.7765 20 6.50012 20H10H16H19C19.5523 20 20 19.5523 20 19C20 18.4477 19.5523 18 19 18H8.34674C8.20201 18 8.1052 17.851 8.16397 17.7188L8.88607 16.0939C9.04657 15.7327 9.4047 15.5 9.7999 15.5H18.4998C18.9302 15.5 19.3123 15.2246 19.4484 14.8163L21.9487 7.31626C22.1646 6.66872 21.6826 6 21 6H7.44126C7.01083 6 6.62869 5.72457 6.49258 5.31623L5.94842 3.68377C5.81231 3.27543 5.43017 3 4.99974 3H3C2.44772 3 2 3.44772 2 4C2 4.55228 2.44772 5 3 5H4.04794C4.12446 5 4.19846 5.02731 4.25664 5.07702Z" fill="#212121"/>
<path d="M10 22C10.5523 22 11 21.5523 11 21C11 20.4477 10.5523 20 10 20C9.44772 20 9 20.4477 9 21C9 21.5523 9.44772 22 10 22Z" fill="#212121"/>
<path d="M16 22C16.5523 22 17 21.5523 17 21C17 20.4477 16.5523 20 16 20C15.4477 20 15 20.4477 15 21C15 21.5523 15.4477 22 16 22Z" fill="#212121"/>
</svg>
