<svg width="34" height="34" viewBox="0 0 34 34" fill="none" xmlns="http://www.w3.org/2000/svg">
<mask id="mask0_2117_289" style="mask-type:alpha" maskUnits="userSpaceOnUse" x="0" y="0" width="34" height="34">
<rect width="34" height="34" fill="#D9D9D9"/>
</mask>
<g mask="url(#mask0_2117_289)">
<path d="M25.679 14.5656L18.179 7.62811C17.7958 7.27358 17.2042 7.27358 16.821 7.62811L9.32096 14.5656C9.11634 14.7549 9 15.021 9 15.2997V24.7C9 25.2523 9.44771 25.7 10 25.7H15.225C15.7773 25.7 16.225 25.2523 16.225 24.7V17.35C16.225 16.7977 16.6727 16.35 17.225 16.35H17.775C18.3273 16.35 18.775 16.7977 18.775 17.35V24.7C18.775 25.2523 19.2227 25.7 19.775 25.7H25C25.5523 25.7 26 25.2523 26 24.7V15.2997C26 15.021 25.8837 14.7549 25.679 14.5656Z" fill="#00CF9D"/>
</g>
</svg>
