<svg width="23" height="23" viewBox="0 0 23 23" fill="none" xmlns="http://www.w3.org/2000/svg">
<path d="M4.65079 17.7421C5.78306 17.4618 6.94983 17.1465 7.78694 17.1465C8.11421 17.1465 8.39117 17.1949 8.59577 17.3118C9.30206 17.7167 9.70648 19.3569 10.1507 20.9065C10.7434 21.0191 11.3534 21.0833 11.9792 21.0833C12.605 21.0833 13.2149 21.0191 13.8077 20.907C14.2514 19.3574 14.6563 17.7172 15.3621 17.3128C15.5667 17.1954 15.8436 17.1474 16.1709 17.1474C17.008 17.1474 18.1753 17.4627 19.3071 17.7431C20.0761 16.8576 20.6799 15.8312 21.0829 14.7085C19.9597 13.5556 18.7484 12.3649 18.7484 11.5009C18.7484 10.6365 19.9597 9.44628 21.0829 8.29341C20.6799 7.17072 20.0761 6.14434 19.3071 5.25884C18.1748 5.53916 17.008 5.85445 16.1709 5.85445C15.8436 5.85445 15.5667 5.80605 15.3621 5.68914C14.6558 5.28424 14.2514 3.64405 13.8072 2.09443C13.2149 1.98086 12.605 1.91666 11.9792 1.91666C11.3534 1.91666 10.7434 1.98086 10.1507 2.09299C9.70696 3.64261 9.30206 5.2828 8.59577 5.68722C8.39117 5.80462 8.11421 5.85253 7.78694 5.85253C6.94983 5.85253 5.78258 5.53724 4.65079 5.25693C3.88173 6.14339 3.27798 7.16928 2.875 8.29245C3.99817 9.44532 5.2095 10.6356 5.2095 11.5C5.2095 12.3644 3.99865 13.5547 2.875 14.7075C3.27798 15.8302 3.88173 16.8566 4.65079 17.7421ZM9.10417 11.5C9.10417 9.91203 10.3912 8.62499 11.9792 8.62499C13.5671 8.62499 14.8542 9.91203 14.8542 11.5C14.8542 13.0879 13.5671 14.375 11.9792 14.375C10.3912 14.375 9.10417 13.0879 9.10417 11.5Z" fill="white"/>
</svg>
