<svg width="18" height="19" viewBox="0 0 18 19" fill="none" xmlns="http://www.w3.org/2000/svg">
<path fill-rule="evenodd" clip-rule="evenodd" d="M12.1353 17H5.86474C4.13318 17 2.72947 15.6605 2.72947 14.0081V10.3498C2.72947 9.81861 2.50836 9.30919 2.11477 8.9336C1.20285 8.06338 1.3214 6.62154 2.36438 5.89769L7.15593 2.57225C8.25531 1.80925 9.74469 1.80925 10.8441 2.57225L15.6356 5.89769C16.6786 6.62154 16.7971 8.06338 15.8852 8.9336C15.4916 9.30919 15.2705 9.81861 15.2705 10.3498V14.0081C15.2705 15.6605 13.8668 17 12.1353 17ZM7.5 13.4375C7.18934 13.4375 6.9375 13.6893 6.9375 14C6.9375 14.3107 7.18934 14.5625 7.5 14.5625H10.5C10.8107 14.5625 11.0625 14.3107 11.0625 14C11.0625 13.6893 10.8107 13.4375 10.5 13.4375H7.5Z" fill="#BDBDBD"/>
</svg>
