<svg width="18" height="19" viewBox="0 0 18 19" fill="none" xmlns="http://www.w3.org/2000/svg">
<path d="M7.12881 3.15588C5.88403 1.91158 3.86593 1.91158 2.62116 3.15588C1.92203 3.85473 1.61576 4.79815 1.70159 5.70935C1.72455 8.15627 3.00288 10.9596 5.27281 13.2287C7.54276 15.4977 10.3471 16.7755 12.7948 16.7984C13.7061 16.8842 14.6498 16.5781 15.3489 15.8793C16.5938 14.6349 16.5938 12.6172 15.3489 11.3728C14.1041 10.1285 12.0861 10.1285 10.8413 11.3728C10.5472 11.6668 10.3224 12.0044 10.1671 12.365C9.39136 11.8833 8.63262 11.2856 7.9243 10.5776C7.21612 9.86969 6.61833 9.11142 6.13655 8.33616C6.49708 8.18098 6.83479 7.95629 7.12881 7.66239C8.37371 6.41797 8.37371 4.40029 7.12881 3.15588Z" fill="#BDBDBD"/>
</svg>
