<svg width="23" height="24" viewBox="0 0 23 24" fill="none" xmlns="http://www.w3.org/2000/svg">
<path d="M20.1109 11.2782V11.252L20.0992 11.2286L17.9742 6.97863L17.9435 6.91734H17.875H15.8609V6.073C15.8609 4.84302 14.855 3.83713 13.625 3.83713H5.125C3.89502 3.83713 2.88913 4.84302 2.88913 6.073V15.5282C2.88913 16.7582 3.89502 17.7641 5.125 17.7641H6.07933C6.13712 18.9473 7.11491 19.8891 8.3125 19.8891C9.51009 19.8891 10.4879 18.9473 10.5457 17.7641H13.625H14.0481C14.1059 18.9473 15.0837 19.8891 16.2812 19.8891C17.4788 19.8891 18.4566 18.9473 18.5144 17.7641H20H20.1109V17.6532V11.2782ZM17.2329 17.6532C17.2329 18.1779 16.806 18.6048 16.2812 18.6048C15.7565 18.6048 15.3296 18.1779 15.3296 17.6532C15.3296 17.1285 15.7565 16.7016 16.2812 16.7016C16.806 16.7016 17.2329 17.1285 17.2329 17.6532ZM9.26413 17.6532C9.26413 18.1779 8.83724 18.6048 8.3125 18.6048C7.78776 18.6048 7.36087 18.1779 7.36087 17.6532C7.36087 17.1285 7.78776 16.7016 8.3125 16.7016C8.83724 16.7016 9.26413 17.1285 9.26413 17.6532ZM8.3125 15.4173C7.50891 15.4173 6.81307 15.8454 6.41963 16.4798H5.125C4.60026 16.4798 4.17337 16.0529 4.17337 15.5282V6.073C4.17337 5.54826 4.60026 5.12137 5.125 5.12137H13.625C14.1497 5.12137 14.5766 5.54826 14.5766 6.073V8.09071V15.5282C14.5766 16.0529 14.1497 16.4798 13.625 16.4798H10.2054C9.81193 15.8454 9.11609 15.4173 8.3125 15.4173ZM18.8266 16.4798H18.1741C17.7807 15.8454 17.0848 15.4173 16.2812 15.4173C16.1352 15.4173 15.9953 15.4355 15.8609 15.4636V8.20158H17.1499L18.8266 11.5551V16.4798Z" fill="black" stroke="black" stroke-width="0.221739"/>
</svg>
