<svg width="60" height="60" viewBox="0 0 60 60" fill="none" xmlns="http://www.w3.org/2000/svg">
<g clip-path="url(#clip0_2098_6672)">
<path d="M57.5639 19.4861C63.3707 34.7085 55.7378 51.7561 40.5153 57.5629C25.2928 63.3697 8.24526 55.7368 2.43845 40.5144C-3.36835 25.2919 4.26454 8.2443 19.487 2.4375C34.7095 -3.36931 51.7571 4.26359 57.5639 19.4861Z" fill="#FFE266" stroke="#332828"/>
<path d="M30 53.9458C16.7953 53.9458 6.0542 43.2047 6.0542 30C6.0542 16.7953 16.7953 6.0542 30 6.0542C43.2047 6.0542 53.9458 16.7953 53.9458 30C53.9458 43.2047 43.2047 53.9458 30 53.9458Z" stroke="#EAC00F" stroke-width="2.6668" stroke-miterlimit="10"/>
<path d="M24.1428 17.8793C24.1983 17.3619 24.6479 17.0971 25.4916 17.0786C26.3415 17.0663 27.3824 17.054 28.6265 17.054H31.9585C34.2619 17.054 35.9125 17.7068 36.9225 19.0187C37.9264 20.3305 38.4869 21.9565 38.5916 23.9088C38.6717 25.8612 38.3083 27.6288 37.5015 29.2117C36.6947 30.7945 34.964 31.6321 32.3218 31.7245H26.6433V33.2765C26.6433 35.0133 26.668 37.0827 26.7234 39.4909C26.7788 41.899 26.8281 43.9068 26.8835 45.5204C26.8281 45.8838 26.3908 46.0932 25.5717 46.1363C24.7526 46.1794 24.3153 45.9762 24.2598 45.5204C24.0997 40.3408 24.0504 36.0788 24.0997 32.7284C24.1551 29.3779 24.1675 24.4262 24.1367 17.8793H24.1428ZM26.7234 28.6142H31.01C33.1533 28.5219 34.5021 28.0599 35.0626 27.2223C35.6169 26.3847 35.857 25.3439 35.777 24.0936C35.6969 22.8434 35.2843 21.8579 34.5452 21.125C33.8061 20.3921 32.5066 20.0287 30.6528 20.0287H26.8035C26.7788 24.4755 26.748 27.3393 26.7234 28.6204V28.6142Z" fill="#EAC00F" stroke="#EAC00F" stroke-width="2.64833" stroke-linecap="round" stroke-linejoin="round"/>
</g>
<defs>
<clipPath id="clip0_2098_6672">
<rect width="60" height="60" fill="white"/>
</clipPath>
</defs>
</svg>
