<svg width="60" height="60" viewBox="0 0 60 60" fill="none" xmlns="http://www.w3.org/2000/svg">
<mask id="mask0_2002_3303" style="mask-type:alpha" maskUnits="userSpaceOnUse" x="0" y="0" width="60" height="60">
<rect width="60" height="60" rx="6.4" fill="#D9D9D9"/>
</mask>
<g mask="url(#mask0_2002_3303)">
<rect x="-0.600098" width="60.6" height="60.6" fill="#FFBE5C"/>
<rect y="-0.599976" width="59.4" height="61.2" fill="black" fill-opacity="0.03"/>
</g>
<g clip-path="url(#clip0_2002_3303)">
<path d="M47.253 22.7283C50.993 32.5326 46.0769 43.5124 36.2726 47.2524C26.4683 50.9924 15.4885 46.0763 11.7485 36.272C8.00852 26.4677 12.9246 15.4879 22.7289 11.7479C32.5332 8.00793 43.513 12.924 47.253 22.7283Z" fill="#FFE266" stroke="#332828"/>
<path d="M29.5001 45.0648C20.917 45.0648 13.9353 38.0831 13.9353 29.5C13.9353 20.917 20.917 13.9352 29.5001 13.9352C38.0831 13.9352 45.0648 20.917 45.0648 29.5C45.0648 38.0831 38.0831 45.0648 29.5001 45.0648Z" stroke="#EAC00F" stroke-width="1.73342" stroke-miterlimit="10"/>
<path d="M25.693 21.6215C25.729 21.2852 26.0213 21.1131 26.5697 21.1011C27.1222 21.0931 27.7987 21.0851 28.6074 21.0851H30.7732C32.2704 21.0851 33.3433 21.5094 33.9998 22.3621C34.6523 23.2148 35.0166 24.2717 35.0847 25.5407C35.1367 26.8098 34.9005 27.9587 34.3761 28.9876C33.8517 30.0164 32.7268 30.5609 31.0093 30.6209H27.3183V31.6297C27.3183 32.7587 27.3343 34.1038 27.3704 35.669C27.4064 37.2343 27.4384 38.5394 27.4744 39.5883C27.4384 39.8245 27.1542 39.9606 26.6217 39.9886C26.0893 40.0166 25.8051 39.8845 25.769 39.5883C25.665 36.2215 25.6329 33.4512 25.665 31.2734C25.701 29.0957 25.709 25.877 25.689 21.6215H25.693ZM27.3704 28.5992H30.1566C31.5498 28.5392 32.4265 28.239 32.7908 27.6945C33.1511 27.1501 33.3072 26.4735 33.2552 25.6608C33.2031 24.8482 32.9349 24.2076 32.4545 23.7313C31.9741 23.2549 31.1294 23.0187 29.9245 23.0187H27.4224C27.4064 25.909 27.3864 27.7706 27.3704 28.6033V28.5992Z" fill="#EAC00F" stroke="#EAC00F" stroke-width="1.72141" stroke-linecap="round" stroke-linejoin="round"/>
</g>
<defs>
<clipPath id="clip0_2002_3303">
<rect width="39" height="39" fill="white" transform="translate(10 10)"/>
</clipPath>
</defs>
</svg>
