<svg width="48" height="48" viewBox="0 0 48 48" fill="none" xmlns="http://www.w3.org/2000/svg">
<circle cx="24" cy="24" r="24" fill="#00CF9D" fill-opacity="0.2"/>
<path d="M13.4395 22.7227C13.4395 22.7227 15.6633 26.5672 21.1771 26.5672V25.0988C21.1771 25.0988 17.4301 24.3738 15.8054 19.124" fill="#FFDD4D"/>
<path d="M13.4395 22.7227C13.4395 22.7227 15.6633 26.5672 21.1771 26.5672V25.0988C21.1771 25.0988 17.4301 24.3738 15.8054 19.124" stroke="#0B454F" stroke-width="0.75" stroke-linecap="round" stroke-linejoin="round"/>
<path d="M15.5597 17.2676C15.5597 17.2676 15.5597 17.2636 15.5597 17.2616C14.2051 15.1535 14.8875 12.623 13.5715 12.623C12.4322 12.623 11.3924 15.1149 12.5053 16.6076H12.4911C10.7059 16.6076 10.2165 18.0556 10.2165 19.8408C10.2165 21.6259 10.7059 23.0739 12.4911 23.0739C14.2762 23.0739 16.6807 22.8789 16.6807 19.8408C16.6807 18.5166 16.2238 17.7327 15.5597 17.2697V17.2676Z" fill="#FFDD4D" stroke="#0B454F" stroke-width="0.75" stroke-linecap="round" stroke-linejoin="round"/>
<path d="M12.0219 19.195C13.4363 19.195 14.5829 18.6158 14.5829 17.9013C14.5829 17.1869 13.4363 16.6077 12.0219 16.6077C10.6076 16.6077 9.461 17.1869 9.461 17.9013C9.461 18.6158 10.6076 19.195 12.0219 19.195Z" fill="#FFDD4D" stroke="#0B454F" stroke-width="0.75" stroke-linecap="round" stroke-linejoin="round"/>
<path d="M12.0219 23.1186C13.4363 23.1186 14.5829 22.5394 14.5829 21.8249C14.5829 21.1104 13.4363 20.5312 12.0219 20.5312C10.6076 20.5312 9.461 21.1104 9.461 21.8249C9.461 22.5394 10.6076 23.1186 12.0219 23.1186Z" fill="#FFDD4D" stroke="#0B454F" stroke-width="0.75" stroke-linecap="round" stroke-linejoin="round"/>
<path d="M11.5609 21.228C12.9753 21.228 14.1219 20.6488 14.1219 19.9343C14.1219 19.2198 12.9753 18.6406 11.5609 18.6406C10.1466 18.6406 9 19.2198 9 19.9343C9 20.6488 10.1466 21.228 11.5609 21.228Z" fill="#FFDD4D" stroke="#0B454F" stroke-width="0.75" stroke-linecap="round" stroke-linejoin="round"/>
<path d="M13.4496 10.8623V9" stroke="#0B454F" stroke-width="0.75" stroke-linecap="round" stroke-linejoin="round"/>
<path d="M11.9184 11.2989L11.2035 9.58081" stroke="#0B454F" stroke-width="0.75" stroke-linecap="round" stroke-linejoin="round"/>
<path d="M14.9809 11.2989L15.6958 9.58081" stroke="#0B454F" stroke-width="0.75" stroke-linecap="round" stroke-linejoin="round"/>
<path d="M28.1166 37.0362C30.0334 37.0362 31.5873 35.4823 31.5873 33.5655C31.5873 31.6486 30.0334 30.0947 28.1166 30.0947C26.1997 30.0947 24.6458 31.6486 24.6458 33.5655C24.6458 35.4823 26.1997 37.0362 28.1166 37.0362Z" fill="#FFDD4D" stroke="#0B454F" stroke-width="0.75" stroke-linecap="round" stroke-linejoin="round"/>
<path d="M28.3318 10.7791H27.9033C27.393 10.7791 26.9792 11.1928 26.9792 11.7031V14.461C26.9792 14.9714 27.393 15.3851 27.9033 15.3851H28.3318C28.8421 15.3851 29.2559 14.9714 29.2559 14.461V11.7031C29.2559 11.1928 28.8421 10.7791 28.3318 10.7791Z" fill="#FFDD4D" stroke="#0B454F" stroke-width="0.75" stroke-linecap="round" stroke-linejoin="round"/>
<path d="M36.0248 24.4103V21.5853C36.0248 17.2758 32.6454 13.6345 28.3379 13.5167C23.868 13.3948 20.2084 16.9814 20.2084 21.4208V24.4103C20.2084 26.7783 19.6235 29.1077 18.5045 31.1954L17.2332 33.5654H39L37.7287 31.1954C36.6097 29.1097 36.0248 26.7783 36.0248 24.4103Z" fill="#FFDD4D" stroke="#0B454F" stroke-width="0.75" stroke-linecap="round" stroke-linejoin="round"/>
<path d="M25.5617 24.3188C26.0105 25.2815 26.9853 25.9496 28.1165 25.9496C29.2477 25.9496 30.2226 25.2815 30.6714 24.3188" stroke="#0B454F" stroke-width="0.75" stroke-linecap="round" stroke-linejoin="round"/>
<path d="M25.7993 23.8232C25.8359 23.9634 25.7526 24.1583 25.58 24.2985C25.4074 24.4386 25.1982 24.4812 25.0682 24.4163" stroke="#0B454F" stroke-width="0.75" stroke-linecap="round" stroke-linejoin="round"/>
<path d="M30.4338 23.8232C30.3972 23.9634 30.4805 24.1583 30.6531 24.2985C30.8257 24.4386 31.0349 24.4812 31.1649 24.4163" stroke="#0B454F" stroke-width="0.75" stroke-linecap="round" stroke-linejoin="round"/>
<path d="M28.1165 24.1382C28.7895 24.1382 29.3351 23.6954 29.3351 23.1492C29.3351 22.603 28.7895 22.1602 28.1165 22.1602C27.4436 22.1602 26.898 22.603 26.898 23.1492C26.898 23.6954 27.4436 24.1382 28.1165 24.1382Z" fill="#FF6A87" stroke="#0B454F" stroke-width="0.75" stroke-linecap="round" stroke-linejoin="round"/>
<path d="M26.2339 22.0259C26.3685 22.0259 26.4776 21.6259 26.4776 21.1324C26.4776 20.6388 26.3685 20.2388 26.2339 20.2388C26.0993 20.2388 25.9902 20.6388 25.9902 21.1324C25.9902 21.6259 26.0993 22.0259 26.2339 22.0259Z" fill="#0B454F" stroke="#0B454F" stroke-width="0.75" stroke-linecap="round" stroke-linejoin="round"/>
<path d="M30.0012 22.0259C30.1358 22.0259 30.2449 21.6259 30.2449 21.1324C30.2449 20.6388 30.1358 20.2388 30.0012 20.2388C29.8666 20.2388 29.7575 20.6388 29.7575 21.1324C29.7575 21.6259 29.8666 22.0259 30.0012 22.0259Z" fill="#0B454F" stroke="#0B454F" stroke-width="0.75" stroke-linecap="round" stroke-linejoin="round"/>
<path opacity="0.9" d="M33.2059 18.4761C33.3582 18.7441 33.4984 19.0346 33.6182 19.3514" stroke="white" stroke-width="0.75" stroke-miterlimit="10" stroke-linecap="round"/>
<path opacity="0.9" d="M29.7575 15.6672C29.7575 15.6672 31.2015 16.0551 32.42 17.3955" stroke="white" stroke-width="0.75" stroke-miterlimit="10" stroke-linecap="round"/>
</svg>
