<svg width="79" height="64" viewBox="0 0 79 64" fill="none" xmlns="http://www.w3.org/2000/svg">
<g clip-path="url(#clip0_139_12679)">
<path d="M56.457 63.5H10.3487C10.3568 63.4963 10.3649 63.4926 10.373 63.4889C11.9986 62.7451 14.1527 61.5042 16.275 59.5133C20.5349 55.5171 24.6146 48.5466 24.1146 36.6674C23.633 25.2242 24.1021 17.5988 25.8295 12.6165C26.6887 10.1382 27.852 8.33718 29.3458 7.04457C30.8293 5.76094 32.6716 4.95022 34.9452 4.50001H73.2757C72.6351 4.90211 71.9375 5.46452 71.2342 6.25031C68.7918 8.97919 66.3217 14.3538 65.8459 24.9491L65.8459 24.9492C65.6457 29.4218 65.6515 33.4479 65.6822 37.084C65.687 37.6586 65.6924 38.2231 65.6978 38.7778C65.7264 41.7389 65.7523 44.4229 65.6684 46.8811C65.469 52.7197 64.6499 57.1752 61.8573 60.8528C60.5811 62.5309 58.5723 63.5 56.457 63.5Z" fill="white" stroke="#332828" stroke-linejoin="bevel"/>
<path d="M3.59271 58.4038L3.84119 58.5461L4.08966 58.4038L5.7619 57.4461L7.43414 58.4038L7.68261 58.5461L7.93109 58.4038L9.60333 57.4461L11.2756 58.4038L11.524 58.5461L11.7725 58.4038L13.4448 57.4461L15.117 58.4038L15.3655 58.5461L15.614 58.4038L17.2862 57.4461L18.9584 58.4038L19.2069 58.5461L19.4554 58.4038L21.1276 57.4461L22.7999 58.4038L23.0483 58.5461L23.2968 58.4038L24.969 57.4461L26.6413 58.4038L26.8898 58.5461L27.1382 58.4038L28.8103 57.4462L30.4797 58.4036L30.7282 58.5462L30.9769 58.4038L32.6489 57.4462L34.3183 58.4036L34.567 58.5463L34.8158 58.4036L36.485 57.4463L38.1541 58.4036L38.4029 58.5463L38.6516 58.4036L40.3208 57.4463L41.99 58.4036L42.2387 58.5463L42.4875 58.4036L44.1567 57.4463L45.8258 58.4036L46.0746 58.5463L46.3233 58.4036L47.9925 57.4463L49.4284 58.2698C49.592 60.3458 50.4601 61.7884 51.6543 62.7663C52.0012 63.0503 52.3727 63.2929 52.7582 63.5H7.5231C4.58389 63.3383 2.8378 61.9273 1.81404 60.5597C1.29747 59.8696 0.96363 59.1878 0.759362 58.6788C0.686281 58.4967 0.630113 58.3375 0.58831 58.209L1.92047 57.4461L3.59271 58.4038Z" fill="#00CF9D" stroke="#332828"/>
<path d="M34.7625 8.84088H61.5185" stroke="#00CF9D" stroke-width="1.67504" stroke-linecap="round" stroke-linejoin="round"/>
<path d="M30.0054 13.3831H62.9534" stroke="#00CF9D" stroke-width="0.279174" stroke-linecap="round" stroke-linejoin="round"/>
<path d="M24.8015 52.6544H59.1678" stroke="#00CF9D" stroke-width="0.279174" stroke-linecap="round" stroke-linejoin="round"/>
<path d="M30.7034 55.5131H51.848" stroke="#00CF9D" stroke-width="0.279174" stroke-linecap="round" stroke-linejoin="round"/>
<path opacity="0.5" d="M31.4375 19.5025H35.4185" stroke="#00CF9D" stroke-width="1.11669" stroke-linecap="round" stroke-linejoin="round"/>
<path opacity="0.5" d="M45.0725 19.5025H59.8631" stroke="#00CF9D" stroke-width="1.11669" stroke-linecap="round" stroke-linejoin="round"/>
<path opacity="0.5" d="M43.4617 23.1122H58.2495" stroke="#00CF9D" stroke-width="1.11669" stroke-linecap="round" stroke-linejoin="round"/>
<path opacity="0.5" d="M43.0205 27.1909H57.8111" stroke="#00CF9D" stroke-width="1.11669" stroke-linecap="round" stroke-linejoin="round"/>
<path opacity="0.5" d="M43.2996 32.1295H58.0902" stroke="#00CF9D" stroke-width="1.11669" stroke-linecap="round" stroke-linejoin="round"/>
<path opacity="0.5" d="M47.0378 37.1742H58.3695" stroke="#00CF9D" stroke-width="1.11669" stroke-linecap="round" stroke-linejoin="round"/>
<path opacity="0.5" d="M42.4592 41.641H58.3135" stroke="#00CF9D" stroke-width="1.11669" stroke-linecap="round" stroke-linejoin="round"/>
<path opacity="0.5" d="M42.155 46.1552H58.0121" stroke="#00CF9D" stroke-width="1.11669" stroke-linecap="round" stroke-linejoin="round"/>
<path opacity="0.5" d="M30.7034 23.1122H34.6844" stroke="#00CF9D" stroke-width="1.11669" stroke-linecap="round" stroke-linejoin="round"/>
<path opacity="0.5" d="M30.7034 27.1909H34.6844" stroke="#00CF9D" stroke-width="1.11669" stroke-linecap="round" stroke-linejoin="round"/>
<path opacity="0.5" d="M30.9824 32.1295H39.1957" stroke="#00CF9D" stroke-width="1.11669" stroke-linecap="round" stroke-linejoin="round"/>
<path opacity="0.5" d="M31.2617 37.1742H37.3198" stroke="#00CF9D" stroke-width="1.11669" stroke-linecap="round" stroke-linejoin="round"/>
<path opacity="0.5" d="M30.9824 41.641H37.0405" stroke="#00CF9D" stroke-width="1.11669" stroke-linecap="round" stroke-linejoin="round"/>
<path opacity="0.5" d="M30.2231 46.1552H33.9864" stroke="#00CF9D" stroke-width="1.11669" stroke-linecap="round" stroke-linejoin="round"/>
</g>
<circle cx="67.5" cy="11.5" r="11" fill="#60CFFF" stroke="#332828"/>
<path d="M62.4399 10.88L65.9296 14.72L72.5599 7.35999" stroke="white" stroke-width="2" stroke-linecap="round" stroke-linejoin="round"/>
<defs>
<clipPath id="clip0_139_12679">
<rect width="76.1586" height="60" fill="white" transform="translate(0 4)"/>
</clipPath>
</defs>
</svg>
