<svg width="57" height="57" viewBox="0 0 57 57" fill="none" xmlns="http://www.w3.org/2000/svg">
<circle cx="28.5005" cy="28.5" r="28.5" fill="#F9F9F9"/>
<circle cx="28.5005" cy="28.5" r="28.5" fill="#39B7DF"/>
<g clip-path="url(#clip0_45_8385)">
<path d="M49.9999 31.6738V31.6561L49.251 30.8269C49.2799 30.821 49.3117 30.818 49.3377 30.8121C49.7223 30.7354 49.7715 30.6203 49.8206 30.5258L49.41 26.9286L49.3985 26.9168H49.3956L49.0544 26.5951C49.277 26.4416 49.3956 26.3207 49.3956 26.2321V23.0096V23.0037H49.3927L48.6091 21.4249L47.6462 22.2099C47.6462 22.2099 47.652 22.7794 47.6606 23.0037H37.5401V26.1524H42.7681V26.5715H37.5401L37.5517 29.6583L36.2187 29.4812L36.2794 28.5398L36.2736 28.1857V27.7667L36.2129 27.8434L36.2708 26.2262L36.2332 26.1229L36.2708 25.996L36.343 25.7511L36.3373 22.9093H36.2014L36.1291 22.502L36.1348 22.3043L34.7064 21.3807L34.1368 22.1686C34.1368 22.1686 34.1426 22.7352 34.1512 22.9624H24.4298V29.8914H23.3368V26.3089H22.718L22.7671 23.0745L22.7527 22.3958L22.7411 22.1066L20.8211 21.0029L20.6303 21.8115C20.6303 21.8115 20.6361 22.3781 20.6447 22.6053H18.2765V34.8491C18.1551 34.8373 17.9989 34.8255 17.8659 34.8137V23.1601H10.2062V33.7306C9.95461 33.71 9.53533 33.6716 9.51798 33.6775C9.49196 33.6834 8.82111 33.7336 8.82111 33.7336L8.01147 33.9372L10.2062 34.8845H16.7585L16.3074 35.0822L18.2736 36H22.3768V34.9937L23.7445 35.5839H36.6004V35.3478L37.1469 35.5839H50.0028V31.6767L49.9999 31.6738ZM14.3093 30.9774H13.8987V27.0702H14.3093V30.9774ZM28.5329 25.7511H33.9315V26.1702H28.5329V25.7511ZM28.5329 27.8434H34.1021V28.2624H28.5329V27.8434ZM41.5247 31.6738H37.1498V34.43C36.985 34.4153 36.7507 34.3946 36.6033 34.3828V31.6708H23.7445V34.4271C23.4929 34.4064 23.0736 34.3681 23.0563 34.374C23.0332 34.3799 22.4664 34.4212 22.3768 34.4271V30.6321H23.3339V30.3576H24.4269V31.0511H36.0192V30.3665H37.5517V30.6793C37.6529 30.7413 37.8929 30.8003 38.2659 30.8564C38.6418 30.9124 39.1103 30.9596 39.6712 30.9951C40.2322 31.0305 40.8481 31.06 41.5161 31.0806V31.6708L41.5247 31.6738ZM44.3209 27.5807C45.6076 27.5188 46.6168 27.4037 47.3512 27.2325C47.4582 27.2089 47.5565 27.1824 47.6549 27.1587C47.6549 27.321 47.6577 27.4745 47.6606 27.5955C47.412 27.6516 47.1344 27.7076 46.8192 27.7607C46.1657 27.8699 45.3329 27.9496 44.3209 27.9998V27.5807ZM45.6279 31.0688C46.3681 31.0482 47.0447 31.0157 47.6635 30.9685C47.8746 30.9537 48.0683 30.9331 48.2505 30.9154C48.2505 31.0393 48.2505 31.3492 48.2563 31.6738H45.6279V31.0688Z" fill="#0B454F"/>
<path d="M16.024 21.7317V33.7954H8.14453V21.7317H16.024ZM12.3662 25.751H11.944V29.7702H12.3662V25.751ZM20.6679 24.9689H21.6539V29.4191H20.6679V34.9404H16.4462V21.1592H20.6679V24.9719V24.9689Z" fill="#FFFA92" stroke="#0B454F" stroke-width="0.234938" stroke-miterlimit="10"/>
<path d="M22.0732 34.5126V30.4933H35.2993V34.5126H22.0732ZM26.9976 26.9816H34.7036V29.8529H22.7788V21.5251H34.5677V24.3965H27.0005V24.8273H34.426V26.5507H27.0005V26.9816H26.9976Z" fill="#FFFA92" stroke="#0B454F" stroke-width="0.234938" stroke-miterlimit="10"/>
<path d="M44.5871 29.8708V30.4934H49.0893V34.5127H35.8633V30.4934H40.3654V29.8885C39.6773 29.8678 39.044 29.8383 38.4657 29.7999C37.8874 29.7616 37.4045 29.7144 37.0199 29.6553C36.6353 29.5963 36.3895 29.5343 36.2854 29.4724L36.271 25.2436H41.6493V24.8127H36.271V21.5725H48.4647V24.8924C48.4647 24.9986 48.3028 25.1521 47.9789 25.3557C47.6551 25.5593 47.1173 25.7452 46.3597 25.9223C45.6021 26.0994 44.564 26.2174 43.2397 26.2823V26.7132C44.2806 26.6601 45.1394 26.5774 45.8103 26.4653C46.484 26.3532 47.0074 26.2322 47.3804 26.0994C47.7563 25.9666 48.0252 25.8515 48.1871 25.757C48.3491 25.6597 48.4387 25.6095 48.4618 25.5977L48.4763 25.6124L48.8985 29.313C48.8464 29.4074 48.6209 29.496 48.2247 29.5757C47.8286 29.6553 47.3139 29.7203 46.6777 29.7675C46.0416 29.8147 45.3447 29.8501 44.5814 29.8708H44.5871Z" fill="#FFFA92" stroke="#0B454F" stroke-width="0.234938" stroke-miterlimit="10"/>
<path d="M16.1483 21.5842L16.4866 22.1921L16.3738 23.5732C16.3738 23.5732 16.2004 23.4463 16.1483 23.343C16.0963 23.2397 15.9777 23.2604 16.0211 22.9653C16.0645 22.6702 16.1483 21.5842 16.1483 21.5842Z" fill="#0B454F"/>
<path d="M35.8632 30.9124H35.2993V32.0101H35.8632V30.9124Z" fill="#0B454F"/>
<path d="M38.9369 24.845H35.9875V25.2434H38.9369V24.845Z" fill="#0B454F"/>
</g>
<defs>
<clipPath id="clip0_45_8385">
<rect width="42" height="15" fill="white" transform="translate(8 21)"/>
</clipPath>
</defs>
</svg>
