<svg width="57" height="57" viewBox="0 0 57 57" fill="none" xmlns="http://www.w3.org/2000/svg">
<mask id="mask0_45_8405" style="mask-type:luminance" maskUnits="userSpaceOnUse" x="0" y="0" width="58" height="57">
<circle cx="28.5002" cy="28.5" r="28.5" fill="white"/>
</mask>
<g mask="url(#mask0_45_8405)">
<rect x="-16.9998" y="-3" width="91" height="60" fill="#00CF9D"/>
<path d="M26.0556 17.1443V18.3722H23.0536V17.1443H26.0556ZM26.7614 13.8715V22.9019H25.2435V13.8715H26.7614ZM27.0708 24.7438V25.9765H18.6544V24.7438H27.0708ZM20.1724 22.1043V25.4399H18.6544V22.1043H20.1724ZM20.6509 16.3225C20.6477 17.1024 20.5108 17.834 20.24 18.5173C19.9725 19.1973 19.5777 19.7935 19.0556 20.3059C18.5335 20.8184 17.9035 21.2019 17.1654 21.4565L16.3823 20.2238C17.0204 20.0143 17.5667 19.7097 18.0211 19.3101C18.4755 18.9072 18.8188 18.4496 19.0508 17.9372C19.2861 17.4215 19.4037 16.8833 19.4037 16.3225V15.4523H20.6509V16.3225ZM20.9507 16.3322C20.9507 16.8382 21.0619 17.3313 21.2842 17.8115C21.5066 18.2917 21.8369 18.7235 22.2753 19.107C22.7136 19.4873 23.2405 19.7806 23.8561 19.9869L23.0971 21.1906C22.3784 20.9489 21.7644 20.5847 21.2552 20.0981C20.746 19.6082 20.3609 19.041 20.0998 18.3964C19.8388 17.7486 19.7099 17.0605 19.7131 16.3322V15.4523H20.9507V16.3322ZM23.508 14.761V15.989H16.827V14.761H23.508ZM35.5091 18.6091V19.8612H33.382V18.6091H35.5091ZM31.8061 17.6326C31.8029 18.506 31.6981 19.3439 31.4919 20.1464C31.2856 20.9457 30.973 21.666 30.554 22.3073C30.1383 22.9454 29.6226 23.4466 29.007 23.8108L28.1224 22.6651C28.6831 22.3395 29.1521 21.9109 29.5291 21.3791C29.9094 20.8442 30.1898 20.256 30.3703 19.6146C30.554 18.9733 30.6475 18.3126 30.6507 17.6326V17.183H31.8061V17.6326ZM32.0865 17.6326C32.0865 18.2965 32.1767 18.933 32.3572 19.5421C32.5409 20.1512 32.8213 20.7056 33.1983 21.2051C33.5754 21.7047 34.0427 22.1043 34.6003 22.404L33.7543 23.5207C33.1258 23.192 32.6005 22.7263 32.1783 22.1236C31.7561 21.5177 31.4435 20.8329 31.2405 20.0691C31.0374 19.302 30.9375 18.4899 30.9407 17.6326V17.183H32.0865V17.6326ZM34.1507 16.018V17.2459H28.543V16.018H34.1507ZM32.0816 14.297V16.9896H30.6507V14.297H32.0816ZM38.9414 13.8619V26.2086H37.5008V13.8619H38.9414ZM36.4276 14.0939V25.614H35.0015V14.0939H36.4276ZM27.709 40.482V41.7244H16.4113V40.482H27.709ZM22.7877 37.7072V40.8108H21.2794V37.7072H22.7877ZM19.1765 31.6789V33.6996H24.9003V31.6789H26.4134V38.0746H17.6537V31.6789H19.1765ZM19.1765 36.8515H24.9003V34.9178H19.1765V36.8515ZM38.6272 30.8619V43.2086H37.0948V30.8619H38.6272ZM34.9435 32.172C34.9435 33.4611 34.7582 34.6439 34.3876 35.7203C34.0169 36.7935 33.4062 37.7797 32.5554 38.6789C31.7078 39.578 30.5862 40.3612 29.1907 41.0283L28.3931 39.8101C29.5759 39.2461 30.5379 38.6031 31.2791 37.8812C32.0236 37.1593 32.5683 36.3504 32.9131 35.4544C33.2612 34.5585 33.4368 33.5497 33.4401 32.4282V32.172H34.9435ZM34.1265 32.172V33.3757H29.0215V32.172H34.1265Z" fill="white"/>
</g>
</svg>
