<svg width="57" height="57" viewBox="0 0 57 57" fill="none" xmlns="http://www.w3.org/2000/svg">
<circle cx="28.5002" cy="28.5" r="28.5" fill="#F9F9F9"/>
<circle cx="28.5002" cy="28.5" r="28.5" fill="#39B7DF"/>
<path d="M19.7185 32.2216H21.0427V24.0056L20.7025 23.126C20.7025 23.126 20.5859 23.847 20.5859 23.8714C20.5859 23.8863 20.6157 23.9514 20.6428 24.0056H18.3876V25.8692H18.046V24.1398H17.9633L18.0325 24.0178L17.7072 23.2588C17.7072 23.2588 17.6408 23.7914 17.5947 24.1398H15.4953V29.7197L15.2106 28.4457L15.1415 28.466C14.9762 28.5148 14.842 28.5487 14.7444 28.569C14.6753 28.5826 14.6075 28.5921 14.5425 28.5961V27.8114L14.8095 27.8371L15.0792 28.4131L15.151 27.2869H15.3028V24.3336H15.1212L15.1564 24.0584L14.964 23.4567C14.964 23.4567 14.8976 23.9853 14.8515 24.3336H11.722V30.7294L11.5892 30.7403V28.6124H11.1121V28.1028C11.1609 28.2044 11.2178 28.283 11.249 28.1949C11.3127 28.016 11.3832 27.7084 11.3832 27.6243C11.3832 27.5823 11.3656 27.4278 11.3479 27.2855H11.5892V24.3322H8.15883V30.7877H7.96366C7.9474 30.7877 7.68311 30.8162 7.68311 30.8162L8.15747 31.5643H11.5878V31.2241C11.6285 31.2214 11.6732 31.2173 11.7207 31.2146V31.5657H13.5924C14.0695 31.5657 14.4679 31.5508 14.7769 31.5209C15.048 31.4952 15.2893 31.4532 15.4926 31.3949V31.7744H18.0433V29.6275H18.3848V31.9817H11.1473C10.6499 31.9817 10.1945 32.1051 9.79337 32.349C9.39354 32.5917 9.06962 32.9102 8.83108 33.2951C8.59254 33.6813 8.46107 34.1029 8.44074 34.5528C8.44074 35.0407 8.56136 35.4866 8.80126 35.877C9.0398 36.2673 9.36643 36.5818 9.77304 36.8108C10.1783 37.0399 10.6418 37.1551 11.1487 37.1551H18.4838C19.0002 37.1551 19.4651 37.0412 19.8662 36.8189C20.2674 36.5953 20.59 36.2836 20.8231 35.8933C21.0576 35.5016 21.1755 35.0516 21.1755 34.5542C21.1755 34.0161 21.0128 33.5065 20.6943 33.0403C20.445 32.677 20.1183 32.4033 19.7171 32.2216H19.7185ZM17.4307 34.3577C17.409 34.3644 17.3887 34.3671 17.367 34.3671H12.2682C12.2397 34.3671 12.2208 34.3644 12.2072 34.3604C12.2045 34.3522 12.2018 34.3346 12.2018 34.3007C12.2018 34.2668 12.2045 34.2492 12.2072 34.2411C12.2208 34.237 12.2397 34.2343 12.2682 34.2343H17.367C17.3887 34.2343 17.4117 34.2384 17.4253 34.2384C17.4253 34.2384 17.4334 34.2519 17.4334 34.3007C17.4334 34.3387 17.428 34.3549 17.4307 34.3577Z" fill="#0B454F"/>
<path d="M33.9347 33.3588L33.8954 33.3723C33.871 33.3805 33.8154 33.4062 33.5986 33.535C33.4454 33.6258 33.1798 33.7315 32.8084 33.8494C32.4357 33.9673 31.9126 34.0785 31.2525 34.1828C30.606 34.2845 29.7752 34.3604 28.7817 34.4092V34.2763C30.0124 34.2153 31.0153 34.1042 31.7621 33.9429C32.5238 33.7789 33.0836 33.6109 33.4251 33.4455C33.9279 33.2016 33.97 33.1162 33.97 33.0498V31.4613H28.7939L29.0514 30.6969C29.2561 30.6779 29.5651 30.6454 29.8091 30.621V31.2539H33.97V24.0056L33.6298 23.126L33.5376 24.0056H29.8091V25.3176H28.8698V28.1827C28.5852 28.0879 28.2843 28.0147 27.9712 27.9645C27.6581 27.9144 27.3288 27.8832 26.9873 27.8697C27.0211 27.8005 27.055 27.7301 27.0903 27.6569C27.135 27.5634 27.1757 27.4644 27.2122 27.36H28.737V24.5409H27.589V24.2807C27.589 24.1723 27.5836 24.0557 27.5741 23.9324L27.5687 23.8701H23.4078L23.4132 23.9432C23.4309 24.1615 23.4322 24.362 23.4187 24.5409H21.5496V27.36H22.7667C22.6312 27.482 22.4645 27.585 22.2693 27.6704C22.0091 27.7829 21.677 27.9103 21.2826 28.0486L21.2244 28.0689L22.0443 31.2892L22.1053 31.2797C22.7993 31.1767 23.4403 30.9924 24.0177 30.7335C24.2752 30.7118 25.1128 30.6779 25.6577 30.6576L25.6184 30.8107L25.697 30.8175C26.0101 30.8473 26.3394 30.907 26.6782 30.9951C27.0171 31.0832 27.3383 31.1835 27.6338 31.2919C27.7923 31.3502 27.936 31.4057 28.0607 31.4586H22.1623V33.4726H27.3356V33.6054H22.1623V36.2077C22.1623 36.4164 22.3425 36.5926 22.6976 36.7336C23.0283 36.8637 23.4824 36.9707 24.0475 37.0507C24.6073 37.1293 25.2484 37.1876 25.9545 37.2228C26.6593 37.2581 27.3952 37.2757 28.142 37.2757C28.8888 37.2757 29.6288 37.2554 30.3444 37.2161C31.0587 37.1768 31.716 37.1239 32.3015 37.0588C32.8898 36.9938 33.3709 36.9152 33.7341 36.8257C34.1272 36.7295 34.3386 36.6224 34.3982 36.4896L34.4064 36.472L34.0133 33.4333L33.9374 33.3574L33.9347 33.3588ZM29.5068 29.3443H29.8077V30.3811C29.7034 30.3309 29.5841 30.274 29.5638 30.2686C29.5258 30.2578 29.397 30.3608 29.4607 30.129C29.5245 29.8986 29.4689 29.7061 29.4689 29.7061L29.3781 29.7238L29.5068 29.3443ZM25.7891 30.1276L25.3365 29.9379C25.5696 29.7549 25.7878 29.5584 25.987 29.347L25.7905 30.1276H25.7891Z" fill="#0B454F"/>
<path d="M42.7199 27.0823C42.6792 26.2406 42.3119 25.5345 41.6288 24.9829C40.9484 24.434 39.9482 24.1548 38.6566 24.1548C37.7959 24.1548 37.0546 24.2876 36.4528 24.5478C35.8469 24.8108 35.3807 25.1713 35.0676 25.6226C34.7532 26.0739 34.5933 26.5822 34.5933 27.1298V33.3928C34.6027 33.9512 34.7708 34.4621 35.0907 34.9148C35.4092 35.3648 35.8754 35.7267 36.4758 35.9882C37.0722 36.2498 37.8068 36.3813 38.6579 36.3813C39.9794 36.3813 40.9972 36.1034 41.6817 35.5545C42.3715 35.0015 42.7212 34.2642 42.7212 33.3616V27.0823H42.7199ZM38.8124 32.0645C38.8124 32.0645 38.8111 32.0876 38.7867 32.1621C38.7745 32.2001 38.6999 32.2055 38.6566 32.2055C38.5902 32.2055 38.5508 32.1906 38.5414 32.1621C38.5156 32.0876 38.5156 32.0659 38.5156 32.0645V28.4715C38.5156 28.4593 38.5197 28.4268 38.5414 28.359C38.5508 28.3306 38.5888 28.3157 38.6566 28.3157C38.6999 28.3157 38.7731 28.3211 38.7867 28.359C38.8097 28.4282 38.8124 28.4593 38.8124 28.4715V32.0645Z" fill="#0B454F"/>
<path d="M28.398 23.6628L28.3655 24.4842L29.344 24.4449L28.398 23.6628Z" fill="#0B454F"/>
<path d="M27.2175 23L27.1782 23.7102H28.1242L27.2175 23Z" fill="#0B454F"/>
<path d="M48.0532 30.5248H47.2942L48.9206 24.0192L48.6007 23.1382C48.6007 23.1382 48.331 23.8443 48.3148 23.8863C48.3053 23.9121 48.308 23.9731 48.3121 24.0192H44.696L43.2472 29.8132C43.014 29.8444 42.7199 29.8851 42.7199 29.8851L43.0344 30.6603H44.3911L43.0926 36.3297C42.8663 36.3581 42.4082 36.4218 42.4082 36.4218L42.9015 37.1659H47.1261L48.6482 30.5234L48.3242 29.6452C48.3242 29.6452 48.1182 30.2917 48.0532 30.5234V30.5248Z" fill="#0B454F"/>
<path d="M11.1161 30.6848H7.82129V23.5882H11.1161V26.406H10.639V27.867H11.1161V30.6848ZM20.5682 31.3408H18.9283C19.4853 31.4993 19.919 31.8084 20.2321 32.2651C20.5452 32.7219 20.7011 33.2138 20.7011 33.7411C20.7011 34.2276 20.5872 34.6627 20.3582 35.0449C20.1291 35.4271 19.8187 35.728 19.4257 35.9462C19.0326 36.1644 18.584 36.2742 18.0758 36.2742H10.7407C10.2433 36.2742 9.79602 36.1631 9.3989 35.9381C9.00179 35.7144 8.68599 35.4109 8.45288 35.0286C8.21976 34.6464 8.1032 34.2168 8.1032 33.7397C8.12353 33.3019 8.24957 32.8953 8.48269 32.5172C8.71581 32.1391 9.02889 31.8314 9.42194 31.5929C9.81499 31.3543 10.2541 31.2351 10.7407 31.2351H18.046V28.7453H17.5689V30.8922H15.1537V30.4896C14.9355 30.5587 14.6712 30.6089 14.3635 30.6387C14.0558 30.6685 13.6628 30.6834 13.1857 30.6834H11.3818V23.5882H14.8257V26.406H14.0653V27.8521C14.1548 27.8521 14.2497 27.8426 14.3486 27.8223C14.4475 27.802 14.5817 27.7681 14.7511 27.718L15.1537 29.5219V23.3944H17.5689V25.1238H18.046V23.2603H20.5655V31.3408H20.5682ZM11.8615 33.6218H16.9603C16.9901 33.6218 17.02 33.6164 17.0498 33.6069C17.0796 33.5974 17.0945 33.5567 17.0945 33.4876C17.0945 33.4185 17.0796 33.3778 17.0498 33.3684C17.02 33.3589 16.9901 33.3534 16.9603 33.3534H11.8615C11.8222 33.3534 11.7897 33.3589 11.7653 33.3684C11.7409 33.3778 11.7287 33.4185 11.7287 33.4876C11.7287 33.5567 11.7409 33.5974 11.7653 33.6069C11.7897 33.6164 11.8222 33.6218 11.8615 33.6218Z" fill="#FFFA92" stroke="#0B454F" stroke-width="0.271067" stroke-miterlimit="10"/>
<path d="M20.8962 27.3004C21.2934 27.1608 21.6241 27.0348 21.887 26.9196C22.1499 26.8057 22.3614 26.6593 22.5213 26.4791H21.2093V23.7969H23.0729C23.0932 23.5976 23.0932 23.374 23.0729 23.126H27.0983C27.1078 23.2452 27.1132 23.3591 27.1132 23.4689V23.7969H28.2611V26.4804H26.7554C26.7161 26.5997 26.6713 26.7122 26.6212 26.8166C26.571 26.9209 26.5222 27.0226 26.4721 27.1215C26.8502 27.131 27.2094 27.1635 27.5537 27.2191C27.8966 27.2733 28.2218 27.356 28.5295 27.4644V24.5721H29.4687V23.2602H33.4941V30.3716H29.4687V28.4633H29.0513L28.291 30.7145H33.4941V32.2352C33.4941 32.2948 33.3247 32.4073 32.9872 32.5713C32.6497 32.7353 32.1008 32.8993 31.3405 33.0633C30.5801 33.2273 29.569 33.3398 28.3059 33.3994V33.6678C29.34 33.6176 30.1898 33.5404 30.8553 33.436C31.5207 33.3317 32.0425 33.2205 32.4207 33.1013C32.7988 32.982 33.0672 32.8749 33.2257 32.78C33.3843 32.6852 33.4792 32.6337 33.509 32.6242L33.5388 32.654L33.9264 35.6506C33.8763 35.7604 33.6703 35.8594 33.3084 35.9488C32.9452 36.0383 32.4708 36.1155 31.884 36.1806C31.2971 36.2456 30.6465 36.2971 29.9309 36.3364C29.2153 36.3758 28.4821 36.3961 27.7312 36.3961C26.9803 36.3961 26.2525 36.3785 25.5464 36.3432C24.8403 36.308 24.2073 36.2511 23.6462 36.1711C23.0851 36.0911 22.6406 35.9868 22.3126 35.858C21.9846 35.7293 21.8206 35.5747 21.8206 35.3958V32.8614H26.9939V32.593H21.8206V30.7145H27.963C27.7841 30.6251 27.5455 30.5261 27.2473 30.4163C26.9492 30.3066 26.6293 30.2076 26.2864 30.1182C25.9435 30.0287 25.6128 29.9691 25.2957 29.9393L25.7131 28.2844C25.2455 28.8306 24.6749 29.2887 23.9986 29.656C23.3223 30.0233 22.5525 30.2727 21.6878 30.4014L20.8976 27.3004H20.8962Z" fill="#FFFA92" stroke="#0B454F" stroke-width="0.271067" stroke-miterlimit="10"/>
<path d="M42.2456 26.2718V32.5483C42.2456 33.4334 41.9081 34.1463 41.2318 34.6884C40.5555 35.2305 39.562 35.5016 38.2501 35.5016C37.4057 35.5016 36.6874 35.3729 36.0951 35.114C35.5041 34.8551 35.0515 34.5054 34.7384 34.0636C34.4253 33.6218 34.264 33.1271 34.2532 32.5809V26.3165C34.2532 25.7798 34.4077 25.2905 34.7153 24.8487C35.023 24.4068 35.4757 24.0558 36.072 23.7983C36.6684 23.5394 37.3935 23.4106 38.2487 23.4106C39.5309 23.4106 40.5081 23.6817 41.1789 24.2225C41.8498 24.7646 42.2049 25.4477 42.2442 26.2718H42.2456ZM38.4737 31.2513V27.6583C38.4737 27.6285 38.4642 27.5837 38.4439 27.5241C38.4235 27.4645 38.3598 27.4346 38.2501 27.4346C38.1511 27.4346 38.0915 27.4645 38.0712 27.5241C38.0508 27.5837 38.0413 27.6285 38.0413 27.6583V31.2513C38.0413 31.2716 38.0508 31.3109 38.0712 31.3705C38.0915 31.4302 38.1511 31.46 38.2501 31.46C38.3598 31.46 38.4235 31.4302 38.4439 31.3705C38.4642 31.3109 38.4737 31.2716 38.4737 31.2513Z" fill="#FFFA92" stroke="#0B454F" stroke-width="0.271067" stroke-miterlimit="10"/>
<path d="M48.4272 23.2737H44.3423L42.7159 29.7807H44.0698L42.5803 36.2863H46.6653L48.1562 29.7793H46.8008L48.4272 23.2737Z" fill="#FFFA92" stroke="#0B454F" stroke-width="0.271067" stroke-miterlimit="10"/>
</svg>
