<svg width="183" height="55" viewBox="0 0 183 55" fill="none" xmlns="http://www.w3.org/2000/svg">
<g clip-path="url(#clip0_1_85)">
<path d="M12.6539 26.4415C12.6539 26.4415 16.9889 33.8492 27.7371 33.8492V31.02C27.7371 31.02 20.4331 29.6229 17.266 19.5073" fill="#FFDD4D"/>
<path d="M12.6539 26.4415C12.6539 26.4415 16.9889 33.8492 27.7371 33.8492V31.02C27.7371 31.02 20.4331 29.6229 17.266 19.5073" stroke="#0B454F" stroke-width="0.989711" stroke-linecap="round" stroke-linejoin="round"/>
<path d="M16.787 15.9307C16.787 15.9307 16.787 15.9229 16.787 15.9189C14.1464 11.857 15.4766 6.9812 12.9113 6.9812C10.6904 6.9812 8.66345 11.7827 10.8329 14.6589H10.8052C7.32536 14.6589 6.37128 17.449 6.37128 20.8887C6.37128 24.3284 7.32536 27.1185 10.8052 27.1185C14.285 27.1185 18.9723 26.7429 18.9723 20.8887C18.9723 18.3373 18.0815 16.8268 16.787 15.9346V15.9307Z" fill="#FFDD4D" stroke="#0B454F" stroke-width="0.989711" stroke-linecap="round" stroke-linejoin="round"/>
<path d="M9.8906 19.6444C12.6477 19.6444 14.8827 18.5283 14.8827 17.1516C14.8827 15.775 12.6477 14.6589 9.8906 14.6589C7.13354 14.6589 4.8985 15.775 4.8985 17.1516C4.8985 18.5283 7.13354 19.6444 9.8906 19.6444Z" fill="#FFDD4D" stroke="#0B454F" stroke-width="0.989711" stroke-linecap="round" stroke-linejoin="round"/>
<path d="M9.8906 27.2046C12.6477 27.2046 14.8827 26.0886 14.8827 24.7119C14.8827 23.3352 12.6477 22.2192 9.8906 22.2192C7.13354 22.2192 4.8985 23.3352 4.8985 24.7119C4.8985 26.0886 7.13354 27.2046 9.8906 27.2046Z" fill="#FFDD4D" stroke="#0B454F" stroke-width="0.989711" stroke-linecap="round" stroke-linejoin="round"/>
<path d="M8.99198 23.5614C11.749 23.5614 13.9841 22.4454 13.9841 21.0687C13.9841 19.692 11.749 18.576 8.99198 18.576C6.23492 18.576 3.99988 19.692 3.99988 21.0687C3.99988 22.4454 6.23492 23.5614 8.99198 23.5614Z" fill="#FFDD4D" stroke="#0B454F" stroke-width="0.989711" stroke-linecap="round" stroke-linejoin="round"/>
<path d="M12.6738 3.5884V0" stroke="#0B454F" stroke-width="0.989711" stroke-linecap="round" stroke-linejoin="round"/>
<path d="M9.68886 4.42977L8.29535 1.1192" stroke="#0B454F" stroke-width="0.989711" stroke-linecap="round" stroke-linejoin="round"/>
<path d="M15.6588 4.42977L17.0523 1.1192" stroke="#0B454F" stroke-width="0.989711" stroke-linecap="round" stroke-linejoin="round"/>
<path d="M41.2646 54.0218C45.0012 54.0218 48.0303 51.0276 48.0303 47.3341C48.0303 43.6406 45.0012 40.6465 41.2646 40.6465C37.5281 40.6465 34.499 43.6406 34.499 47.3341C34.499 51.0276 37.5281 54.0218 41.2646 54.0218Z" fill="#FFDD4D" stroke="#0B454F" stroke-width="0.989711" stroke-linecap="round" stroke-linejoin="round"/>
<path d="M41.6842 3.42798H40.8489C39.8541 3.42798 39.0476 4.22514 39.0476 5.20848V10.5226C39.0476 11.506 39.8541 12.3031 40.8489 12.3031H41.6842C42.679 12.3031 43.4855 11.506 43.4855 10.5226V5.20848C43.4855 4.22514 42.679 3.42798 41.6842 3.42798Z" fill="#FFDD4D" stroke="#0B454F" stroke-width="0.989711" stroke-linecap="round" stroke-linejoin="round"/>
<path d="M56.6804 29.6934V24.2502C56.6804 15.9463 50.0929 8.92998 41.6962 8.70302C32.9828 8.46822 25.849 15.3789 25.849 23.9332V29.6934C25.849 34.2562 24.7088 38.7446 22.5275 42.7674L20.0493 47.3341H62.4801L60.0019 42.7674C57.8206 38.7485 56.6804 34.2562 56.6804 29.6934Z" fill="#FFDD4D" stroke="#0B454F" stroke-width="0.989711" stroke-linecap="round" stroke-linejoin="round"/>
<path d="M36.2845 29.5173C37.1594 31.3722 39.0596 32.6596 41.2647 32.6596C43.4698 32.6596 45.37 31.3722 46.2449 29.5173" stroke="#0B454F" stroke-width="0.989711" stroke-linecap="round" stroke-linejoin="round"/>
<path d="M36.7476 28.5624C36.8189 28.8324 36.6566 29.2081 36.3201 29.4781C35.9836 29.7481 35.5758 29.8303 35.3224 29.7051" stroke="#0B454F" stroke-width="0.989711" stroke-linecap="round" stroke-linejoin="round"/>
<path d="M45.7817 28.5624C45.7105 28.8324 45.8728 29.2081 46.2093 29.4781C46.5458 29.7481 46.9535 29.8303 47.2069 29.7051" stroke="#0B454F" stroke-width="0.989711" stroke-linecap="round" stroke-linejoin="round"/>
<path d="M41.2646 29.1691C42.5764 29.1691 43.6399 28.3158 43.6399 27.2633C43.6399 26.2108 42.5764 25.3576 41.2646 25.3576C39.9527 25.3576 38.8893 26.2108 38.8893 27.2633C38.8893 28.3158 39.9527 29.1691 41.2646 29.1691Z" fill="#FF6A87" stroke="#0B454F" stroke-width="0.989711" stroke-linecap="round" stroke-linejoin="round"/>
<path d="M37.5948 25.0993C37.8572 25.0993 38.0699 24.3284 38.0699 23.3774C38.0699 22.4265 37.8572 21.6556 37.5948 21.6556C37.3324 21.6556 37.1198 22.4265 37.1198 23.3774C37.1198 24.3284 37.3324 25.0993 37.5948 25.0993Z" fill="#0B454F" stroke="#0B454F" stroke-width="0.989711" stroke-linecap="round" stroke-linejoin="round"/>
<path d="M44.9384 25.0993C45.2008 25.0993 45.4135 24.3284 45.4135 23.3774C45.4135 22.4265 45.2008 21.6556 44.9384 21.6556C44.6761 21.6556 44.4634 22.4265 44.4634 23.3774C44.4634 24.3284 44.6761 25.0993 44.9384 25.0993Z" fill="#0B454F" stroke="#0B454F" stroke-width="0.989711" stroke-linecap="round" stroke-linejoin="round"/>
<path opacity="0.9" d="M51.1855 18.259C51.4825 18.7756 51.7556 19.3352 51.9892 19.9456" stroke="white" stroke-width="0.989711" stroke-miterlimit="10" stroke-linecap="round"/>
<path opacity="0.9" d="M44.4634 12.847C44.4634 12.847 47.2781 13.5945 49.6534 16.1772" stroke="white" stroke-width="0.989711" stroke-miterlimit="10" stroke-linecap="round"/>
<g clip-path="url(#clip1_1_85)">
<path d="M178.445 38.7519V38.7059L176.458 36.5499C176.534 36.5345 176.619 36.5269 176.688 36.5115C177.708 36.312 177.839 36.0128 177.969 35.7673L176.88 26.4143L176.849 26.3836H176.841L175.936 25.5473C176.527 25.1484 176.841 24.8338 176.841 24.6036V16.2251V16.2097H176.834L174.754 12.1049L172.199 14.1458C172.199 14.1458 172.215 15.6266 172.238 16.2097H145.384V24.3964H159.256V25.486H145.384L145.414 33.5115L141.877 33.0512L142.038 30.6036L142.023 29.6829V28.5934L141.862 28.7929L142.015 24.5883L141.916 24.3197L142.015 23.9898L142.207 23.353L142.192 15.9642H141.831L141.639 14.9054L141.655 14.3913L137.864 11.9898L136.353 14.0384C136.353 14.0384 136.368 15.5115 136.391 16.1023H110.596V34.1177H107.696V24.8031H106.054L106.184 16.3939L106.146 14.6292L106.115 13.8773L101.02 11.0077L100.514 13.11C100.514 13.11 100.529 14.5831 100.552 15.1739H94.2685V47.0077C93.9462 46.977 93.5319 46.9463 93.179 46.9156V16.6164H72.8542V44.0998C72.1866 44.0461 71.0741 43.9463 71.0281 43.9617C70.959 43.977 69.179 44.1074 69.179 44.1074L67.0306 44.6368L72.8542 47.0998H90.2404L89.0434 47.6138L94.2608 50H105.148V47.3836L108.777 48.9182H142.89V48.3044L144.34 48.9182H178.453V38.7596L178.445 38.7519ZM83.7416 36.9412H82.6521V26.7826H83.7416V36.9412ZM121.483 23.353H135.808V24.4425H121.483V23.353ZM121.483 28.7929H136.261V29.8824H121.483V28.7929ZM155.956 38.7519H144.348V45.9182C143.91 45.8798 143.289 45.8261 142.898 45.7954V38.7443H108.777V45.9105C108.11 45.8568 106.997 45.757 106.951 45.7724C106.89 45.7877 105.386 45.8952 105.148 45.9105V36.0435H107.688V35.3299H110.588V37.133H141.348V35.353H145.414V36.1663C145.683 36.3274 146.32 36.4808 147.309 36.6266C148.307 36.7724 149.55 36.8952 151.038 36.9872C152.527 37.0793 154.161 37.156 155.933 37.2097V38.7443L155.956 38.7519ZM163.376 28.11C166.79 27.9489 169.468 27.6496 171.417 27.2046C171.701 27.1432 171.962 27.0742 172.222 27.0128C172.222 27.4348 172.23 27.8338 172.238 28.1484C171.578 28.2941 170.841 28.4399 170.005 28.578C168.271 28.8619 166.061 29.0691 163.376 29.1995V28.11ZM166.844 37.179C168.808 37.1253 170.604 37.0409 172.245 36.9182C172.806 36.8798 173.32 36.8261 173.803 36.7801C173.803 37.1023 173.803 37.9079 173.818 38.7519H166.844V37.179Z" fill="#0B454F"/>
<path d="M88.2916 12.9028V44.2685H67.3837V12.9028H88.2916ZM78.5857 23.3529H77.4655V33.8031H78.5857V23.3529ZM100.614 21.3197H103.23V32.89H100.614V47.2455H89.4118V11.4143H100.614V21.3273V21.3197Z" fill="#FFFA92" stroke="#0B454F" stroke-width="0.767263" stroke-miterlimit="10"/>
<path d="M104.343 46.133V35.6829H139.437V46.133H104.343ZM117.409 26.5524H137.857V34.0179H106.215V12.3657H137.496V19.8312H117.417V20.9514H137.12V25.4322H117.417V26.5524H117.409Z" fill="#FFFA92" stroke="#0B454F" stroke-width="0.767263" stroke-miterlimit="10"/>
<path d="M164.082 34.0639V35.6828H176.028V46.133H140.933V35.6828H152.88V34.1099C151.054 34.0562 149.373 33.9795 147.839 33.8798C146.304 33.78 145.023 33.6573 144.003 33.5038C142.982 33.3504 142.33 33.1892 142.054 33.0281L142.015 22.0332H156.286V20.913H142.015V12.4885H174.371V21.1202C174.371 21.3964 173.941 21.7954 173.082 22.3248C172.222 22.8542 170.795 23.3376 168.785 23.7979C166.775 24.2583 164.02 24.5652 160.506 24.734V25.8542C163.269 25.7161 165.547 25.5013 167.327 25.2097C169.115 24.9181 170.504 24.6036 171.494 24.2583C172.491 23.913 173.205 23.6138 173.634 23.3683C174.064 23.1151 174.302 22.9846 174.363 22.9539L174.401 22.9923L175.522 32.6138C175.384 32.8593 174.785 33.0895 173.734 33.2966C172.683 33.5038 171.317 33.6726 169.629 33.7954C167.941 33.9181 166.092 34.0102 164.066 34.0639H164.082Z" fill="#FFFA92" stroke="#0B454F" stroke-width="0.767263" stroke-miterlimit="10"/>
<path d="M88.6215 12.5192L89.5192 14.0997L89.2199 17.6905C89.2199 17.6905 88.7596 17.3606 88.6215 17.0921C88.4834 16.8235 88.1688 16.8772 88.2839 16.11C88.399 15.3427 88.6215 12.5192 88.6215 12.5192Z" fill="#0B454F"/>
<path d="M140.933 36.7724H139.437V39.6266H140.933V36.7724Z" fill="#0B454F"/>
<path d="M149.09 20.9975H141.263V22.0333H149.09V20.9975Z" fill="#0B454F"/>
</g>
</g>
<defs>
<clipPath id="clip0_1_85">
<rect width="181.176" height="55" fill="white" transform="translate(0.911743)"/>
</clipPath>
<clipPath id="clip1_1_85">
<rect width="111.445" height="39" fill="white" transform="translate(67 11)"/>
</clipPath>
</defs>
</svg>
